<svg xmlns="http://www.w3.org/2000/svg" xmlns:xlink="http://www.w3.org/1999/xlink" contentStyleType="text/css" height="1398px" preserveAspectRatio="none" style="width:1548px;height:1398px;background:#FFFFFF;" version="1.1" viewBox="0 0 1548 1398" width="1548px" zoomAndPan="magnify"><title>RF25 &#8212; Selo / jogo FLAIR &#8594; direito promocional &#8594; cupom Fashion AI</title><defs/><g><text fill="#000000" font-family="DejaVu Sans" font-size="15" font-weight="bold" lengthAdjust="spacing" textLength="572.666" x="486.2139" y="33.9233">RF25 &#8212; Selo / jogo FLAIR &#8594; direito promocional &#8594; cupom Fashion AI</text><text fill="#000000" font-family="DejaVu Sans" font-size="15" font-weight="bold" lengthAdjust="spacing" textLength="702.085" x="421.5044" y="51.3843">Diagrama de atividades &#8212; gerado do c&#243;digo em 2026-10-06 (scripts/diagramas/v5)</text><rect fill="none" height="13.9688" style="stroke:none;stroke-width:1.0;" width="1515.0938" x="15" y="67.252"/><ellipse cx="442.3677" cy="96.2207" fill="#20A77A" rx="10" ry="10" style="stroke:#222222;stroke-width:1.0;"/><rect fill="#F8F4FF" height="33.9688" rx="7" ry="7" style="stroke:#B695F5;stroke-width:0.5;" width="197.627" x="343.5542" y="126.2207"/><text fill="#2D2438" font-family="DejaVu Sans" font-size="12" lengthAdjust="spacing" textLength="177.627" x="353.5542" y="147.3594">Abre /coupons, /brands/[slug]</text><rect fill="#F8F4FF" height="47.9375" rx="7" ry="7" style="stroke:#B695F5;stroke-width:0.5;" width="247.8184" x="318.4585" y="262.0957"/><text fill="#2D2438" font-family="DejaVu Sans" font-size="12" lengthAdjust="spacing" textLength="227.8184" x="328.4585" y="283.2344">sim, resgatar: emite o cupom Fashion</text><text fill="#2D2438" font-family="DejaVu Sans" font-size="12" lengthAdjust="spacing" textLength="146.8711" x="328.4585" y="297.2031">AI da marca/celebridade</text><polygon fill="#FFF5F8" points="425.314,1021.5176,459.4214,1021.5176,471.4214,1033.5176,459.4214,1045.5176,425.314,1045.5176,413.314,1033.5176,425.314,1021.5176" style="stroke:#F08DB1;stroke-width:0.5;"/><text fill="#2D2438" font-family="DejaVu Sans" font-size="12" lengthAdjust="spacing" textLength="34.1074" x="425.314" y="1037.6719">Qual?</text><rect fill="#F8F4FF" height="103.8125" rx="7" ry="7" style="stroke:#B695F5;stroke-width:0.5;" width="305.8848" x="44" y="1083.4551"/><text fill="#2D2438" font-family="DejaVu Sans" font-size="12" lengthAdjust="spacing" textLength="246.873" x="54" y="1104.5938">POST /api/me/coupon-rights/{id}/dismiss</text><text fill="#2D2438" font-family="DejaVu Sans" font-size="12" lengthAdjust="spacing" textLength="152.6543" x="54" y="1118.5625">&#8594; CouponService.dismiss</text><text fill="#2D2438" font-family="DejaVu Sans" font-size="12" lengthAdjust="spacing" textLength="217.3828" x="54" y="1132.5313">l&#234;: coupon_rights, celebrity_profiles,</text><text fill="#2D2438" font-family="DejaVu Sans" font-size="12" lengthAdjust="spacing" textLength="85.5469" x="54" y="1146.5">brand_profiles</text><text fill="#2D2438" font-family="DejaVu Sans" font-size="12" lengthAdjust="spacing" textLength="152.0625" x="54" y="1160.4688">usa: Guard.requireOwner</text><text fill="#2D2438" font-family="DejaVu Sans" font-size="12" lengthAdjust="spacing" textLength="285.8848" x="54" y="1174.4375">estado: status &#8594; DISPENSADO, decidedAt &#8594; set</text><rect fill="#F8F4FF" height="117.7813" rx="7" ry="7" style="stroke:#B695F5;stroke-width:0.5;" width="403.2617" x="408.2979" y="1083.4551"/><text fill="#2D2438" font-family="DejaVu Sans" font-size="12" lengthAdjust="spacing" textLength="187.5352" x="418.2979" y="1104.5938">POST /api/me/coupons/validate</text><text fill="#2D2438" font-family="DejaVu Sans" font-size="12" lengthAdjust="spacing" textLength="156.1055" x="418.2979" y="1118.5625">&#8594; CouponService.validate</text><text fill="#2D2438" font-family="DejaVu Sans" font-size="12" lengthAdjust="spacing" textLength="383.2617" x="418.2979" y="1132.5313">valida: CUPOM_EXPIRADO, CUPOM_USADO, NAO_ENCONTRADO</text><text fill="#2D2438" font-family="DejaVu Sans" font-size="12" lengthAdjust="spacing" textLength="272.6602" x="418.2979" y="1146.5">l&#234;: users, flair_redemptions, brand_profiles &#8230;</text><text fill="#2D2438" font-family="DejaVu Sans" font-size="12" lengthAdjust="spacing" textLength="245.9355" x="418.2979" y="1160.4688">usa: Guard.requireApprovedInstitutional,</text><text fill="#2D2438" font-family="DejaVu Sans" font-size="12" lengthAdjust="spacing" textLength="152.9238" x="418.2979" y="1174.4375">FlairService.validateCode</text><text fill="#2D2438" font-family="DejaVu Sans" font-size="12" lengthAdjust="spacing" textLength="136.2891" x="418.2979" y="1188.4063">estado: status &#8594; USED</text><polygon fill="#FFF5F8" points="442.3677,1222.8613,442.3677,1222.8613,454.3677,1234.8613,442.3677,1246.8613,442.3677,1246.8613,430.3677,1234.8613,442.3677,1222.8613" style="stroke:#F08DB1;stroke-width:0.5;"/><polygon fill="#FFF5F8" points="394.7983,972.5332,489.937,972.5332,501.937,984.5332,489.937,996.5332,394.7983,996.5332,382.7983,984.5332,394.7983,972.5332" style="stroke:#F08DB1;stroke-width:0.5;"/><text fill="#000000" font-family="DejaVu Sans" font-size="12" lengthAdjust="spacing" textLength="21.2754" x="446.3677" y="1007.6719">sim</text><text fill="#2D2438" font-family="DejaVu Sans" font-size="12" lengthAdjust="spacing" textLength="95.1387" x="394.7983" y="988.6875">Faz outra a&#231;&#227;o?</text><polygon fill="#FFF5F8" points="442.3677,1320.8301,454.3677,1332.8301,442.3677,1344.8301,430.3677,1332.8301,442.3677,1320.8301" style="stroke:#F08DB1;stroke-width:0.5;"/><ellipse cx="442.3677" cy="1375.8301" fill="none" rx="11" ry="11" style="stroke:#222222;stroke-width:1.0;"/><ellipse cx="442.3677" cy="1375.8301" fill="#222222" rx="6" ry="6" style="stroke:#222222;stroke-width:1.0;"/><line style="stroke:#CBC6BE;stroke-width:1.5;" x1="15" x2="15" y1="67.252" y2="1386.8301"/><rect fill="#F8F4FF" height="61.9063" rx="7" ry="7" style="stroke:#B695F5;stroke-width:0.5;" width="189.5352" x="891.2334" y="180.1895"/><text fill="#2D2438" font-family="DejaVu Sans" font-size="12" lengthAdjust="spacing" textLength="150.7324" x="901.2334" y="201.3281">Carrega os dados da tela</text><text fill="#2D2438" font-family="DejaVu Sans" font-size="12" lengthAdjust="spacing" textLength="127.8926" x="901.2334" y="215.2969">GET /api/me/coupons</text><text fill="#2D2438" font-family="DejaVu Sans" font-size="12" lengthAdjust="spacing" textLength="169.5352" x="901.2334" y="229.2656">GET /api/me/coupons/admin</text><rect fill="#F8F4FF" height="33.9688" rx="7" ry="7" style="stroke:#B695F5;stroke-width:0.5;" width="268.5313" x="851.7354" y="330.0332"/><text fill="#2D2438" font-family="DejaVu Sans" font-size="12" lengthAdjust="spacing" textLength="248.5313" x="861.7354" y="351.1719">POST /api/me/coupon-rights/{id}/redeem</text><rect fill="#F8F4FF" height="33.9688" rx="7" ry="7" style="stroke:#B695F5;stroke-width:0.5;" width="202.2148" x="884.8936" y="918.5645"/><text fill="#2D2438" font-family="DejaVu Sans" font-size="12" lengthAdjust="spacing" textLength="182.2148" x="894.8936" y="939.7031">Atualiza a tela com a resposta</text><rect fill="#F8F4FF" height="33.9688" rx="7" ry="7" style="stroke:#B695F5;stroke-width:0.5;" width="105.9512" x="933.0254" y="1266.8613"/><text fill="#2D2438" font-family="DejaVu Sans" font-size="12" lengthAdjust="spacing" textLength="85.9512" x="943.0254" y="1288">Atualiza a tela</text><line style="stroke:#CBC6BE;stroke-width:1.5;" x1="845.7354" x2="845.7354" y1="67.252" y2="1386.8301"/><rect fill="#F8F4FF" height="47.9375" rx="7" ry="7" style="stroke:#B695F5;stroke-width:0.5;" width="175.3848" x="1130.2666" y="384.002"/><text fill="#2D2438" font-family="DejaVu Sans" font-size="12" lengthAdjust="spacing" textLength="155.3848" x="1140.2666" y="405.1406">CouponController.redeem</text><text fill="#2D2438" font-family="DejaVu Sans" font-size="12" lengthAdjust="spacing" textLength="154.3125" x="1140.2666" y="419.1094">&#8594; CouponService.redeem</text><rect fill="#F8F4FF" height="61.9063" rx="7" ry="7" style="stroke:#B695F5;stroke-width:0.5;" width="161.9375" x="1136.9902" y="500.9238"/><text fill="#2D2438" font-family="DejaVu Sans" font-size="12" lengthAdjust="spacing" textLength="141.9375" x="1146.9902" y="522.0625">409 DIREITO_DECIDIDO</text><text fill="#2D2438" font-family="DejaVu Sans" font-size="12" lengthAdjust="spacing" textLength="134.3027" x="1146.9902" y="536.0313">&#171;Este cupom j&#225; foi &#8230;&#187;</text><text fill="#2D2438" font-family="DejaVu Sans" font-size="12" lengthAdjust="spacing" textLength="140.2559" x="1146.9902" y="550">&#8594; a tela mostra o aviso</text><ellipse cx="1217.959" cy="605.877" fill="none" rx="11" ry="11" style="stroke:#222222;stroke-width:1.0;"/><ellipse cx="1217.959" cy="605.877" fill="#222222" rx="6" ry="6" style="stroke:#222222;stroke-width:1.0;"/><polygon fill="#FFF5F8" points="1168.1221,451.9395,1267.7959,451.9395,1279.7959,463.9395,1267.7959,475.9395,1168.1221,475.9395,1156.1221,463.9395,1168.1221,451.9395" style="stroke:#F08DB1;stroke-width:0.5;"/><text fill="#000000" font-family="DejaVu Sans" font-size="12" lengthAdjust="spacing" textLength="21.2754" x="1221.959" y="487.0781">sim</text><text fill="#2D2438" font-family="DejaVu Sans" font-size="12" lengthAdjust="spacing" textLength="99.6738" x="1168.1221" y="468.0938">direito decidido?</text><line style="stroke:#CBC6BE;stroke-width:1.5;" x1="1124.2666" x2="1124.2666" y1="67.252" y2="1386.8301"/><rect fill="#F8F4FF" height="89.8438" rx="7" ry="7" style="stroke:#B695F5;stroke-width:0.5;" width="163.7715" x="1344.0332" y="658.877"/><text fill="#2D2438" font-family="DejaVu Sans" font-size="12" lengthAdjust="spacing" textLength="106.4824" x="1354.0332" y="680.0156">L&#234;: coupon_rights</text><text fill="#2D2438" font-family="DejaVu Sans" font-size="12" lengthAdjust="spacing" textLength="143.7715" x="1354.0332" y="693.9844">promotion_redemptions</text><text fill="#2D2438" font-family="DejaVu Sans" font-size="12" lengthAdjust="spacing" textLength="32.4258" x="1354.0332" y="707.9531">users</text><text fill="#2D2438" font-family="DejaVu Sans" font-size="12" lengthAdjust="spacing" textLength="85.5469" x="1354.0332" y="721.9219">brand_profiles</text><text fill="#2D2438" font-family="DejaVu Sans" font-size="12" lengthAdjust="spacing" textLength="105.041" x="1354.0332" y="735.8906">flair_redemptions</text><rect fill="#F8F4FF" height="61.9063" rx="7" ry="7" style="stroke:#B695F5;stroke-width:0.5;" width="173.2402" x="1339.2988" y="768.7207"/><text fill="#2D2438" font-family="DejaVu Sans" font-size="12" lengthAdjust="spacing" textLength="153.2402" x="1349.2988" y="789.8594">Usa: Guard.requireOwner</text><text fill="#2D2438" font-family="DejaVu Sans" font-size="12" lengthAdjust="spacing" textLength="120.2402" x="1349.2988" y="803.8281">SealService.redeem</text><text fill="#2D2438" font-family="DejaVu Sans" font-size="12" lengthAdjust="spacing" textLength="120.4102" x="1349.2988" y="817.7969">FlairService.redeem</text><rect fill="#F8F4FF" height="47.9375" rx="7" ry="7" style="stroke:#B695F5;stroke-width:0.5;" width="198.5352" x="1326.6514" y="850.627"/><text fill="#2D2438" font-family="DejaVu Sans" font-size="12" lengthAdjust="spacing" textLength="178.5352" x="1336.6514" y="871.7656">Estado: status &#8594; RESGATADO</text><text fill="#2D2438" font-family="DejaVu Sans" font-size="12" lengthAdjust="spacing" textLength="96.4863" x="1336.6514" y="885.7344">decidedAt &#8594; set</text><line style="stroke:#CBC6BE;stroke-width:1.5;" x1="1320.6514" x2="1320.6514" y1="67.252" y2="1386.8301"/><line style="stroke:#CBC6BE;stroke-width:1.5;" x1="1529.1865" x2="1529.1865" y1="67.252" y2="1386.8301"/><line style="stroke:#52606D;stroke-width:1.0;" x1="442.3677" x2="442.3677" y1="106.2207" y2="126.2207"/><polygon fill="#52606D" points="438.3677,116.2207,442.3677,126.2207,446.3677,116.2207,442.3677,120.2207" style="stroke:#52606D;stroke-width:1.0;"/><line style="stroke:#52606D;stroke-width:1.0;" x1="413.314" x2="196.9424" y1="1033.5176" y2="1033.5176"/><line style="stroke:#52606D;stroke-width:1.0;" x1="196.9424" x2="196.9424" y1="1033.5176" y2="1083.4551"/><polygon fill="#52606D" points="192.9424,1073.4551,196.9424,1083.4551,200.9424,1073.4551,196.9424,1077.4551" style="stroke:#52606D;stroke-width:1.0;"/><text fill="#000000" font-family="DejaVu Sans" font-size="12" lengthAdjust="spacing" textLength="191.3555" x="196.9424" y="1062.6406">dispensar o cupom conquistado</text><line style="stroke:#52606D;stroke-width:1.0;" x1="471.4214" x2="609.9287" y1="1033.5176" y2="1033.5176"/><line style="stroke:#52606D;stroke-width:1.0;" x1="609.9287" x2="609.9287" y1="1033.5176" y2="1083.4551"/><polygon fill="#52606D" points="605.9287,1073.4551,609.9287,1083.4551,613.9287,1073.4551,609.9287,1077.4551" style="stroke:#52606D;stroke-width:1.0;"/><text fill="#000000" font-family="DejaVu Sans" font-size="12" lengthAdjust="spacing" textLength="230.8066" x="609.9287" y="1062.6406">confere o c&#243;digo de um cupom Fash&#8230;</text><line style="stroke:#52606D;stroke-width:1.0;" x1="196.9424" x2="196.9424" y1="1187.2676" y2="1234.8613"/><line style="stroke:#52606D;stroke-width:1.0;" x1="196.9424" x2="430.3677" y1="1234.8613" y2="1234.8613"/><polygon fill="#52606D" points="420.3677,1230.8613,430.3677,1234.8613,420.3677,1238.8613,424.3677,1234.8613" style="stroke:#52606D;stroke-width:1.0;"/><line style="stroke:#52606D;stroke-width:1.0;" x1="609.9287" x2="609.9287" y1="1201.2363" y2="1234.8613"/><line style="stroke:#52606D;stroke-width:1.0;" x1="609.9287" x2="454.3677" y1="1234.8613" y2="1234.8613"/><polygon fill="#52606D" points="464.3677,1230.8613,454.3677,1234.8613,464.3677,1238.8613,460.3677,1234.8613" style="stroke:#52606D;stroke-width:1.0;"/><line style="stroke:#52606D;stroke-width:1.0;" x1="442.3677" x2="442.3677" y1="996.5332" y2="1021.5176"/><polygon fill="#52606D" points="438.3677,1011.5176,442.3677,1021.5176,446.3677,1011.5176,442.3677,1015.5176" style="stroke:#52606D;stroke-width:1.0;"/><line style="stroke:#52606D;stroke-width:1.0;" x1="382.7983" x2="34" y1="984.5332" y2="984.5332"/><polygon fill="#52606D" points="30,1202.8613,34,1212.8613,38,1202.8613,34,1206.8613" style="stroke:#52606D;stroke-width:1.0;"/><line style="stroke:#52606D;stroke-width:1.0;" x1="34" x2="34" y1="984.5332" y2="1332.8301"/><line style="stroke:#52606D;stroke-width:1.0;" x1="34" x2="430.3677" y1="1332.8301" y2="1332.8301"/><polygon fill="#52606D" points="420.3677,1328.8301,430.3677,1332.8301,420.3677,1336.8301,424.3677,1332.8301" style="stroke:#52606D;stroke-width:1.0;"/><line style="stroke:#52606D;stroke-width:1.0;" x1="442.3677" x2="442.3677" y1="1344.8301" y2="1364.8301"/><polygon fill="#52606D" points="438.3677,1354.8301,442.3677,1364.8301,446.3677,1354.8301,442.3677,1358.8301" style="stroke:#52606D;stroke-width:1.0;"/><line style="stroke:#52606D;stroke-width:1.0;" x1="1217.959" x2="1217.959" y1="562.8301" y2="594.877"/><polygon fill="#52606D" points="1213.959,584.877,1217.959,594.877,1221.959,584.877,1217.959,588.877" style="stroke:#52606D;stroke-width:1.0;"/><line style="stroke:#52606D;stroke-width:1.0;" x1="1217.959" x2="1217.959" y1="475.9395" y2="500.9238"/><polygon fill="#52606D" points="1213.959,490.9238,1217.959,500.9238,1221.959,490.9238,1217.959,494.9238" style="stroke:#52606D;stroke-width:1.0;"/><line style="stroke:#52606D;stroke-width:1.0;" x1="1279.7959" x2="1425.9189" y1="463.9395" y2="463.9395"/><polygon fill="#52606D" points="1421.9189,564.877,1425.9189,574.877,1429.9189,564.877,1425.9189,568.877" style="stroke:#52606D;stroke-width:1.0;"/><line style="stroke:#52606D;stroke-width:1.0;" x1="1425.9189" x2="1425.9189" y1="463.9395" y2="658.877"/><polygon fill="#52606D" points="1421.9189,648.877,1425.9189,658.877,1429.9189,648.877,1425.9189,652.877" style="stroke:#52606D;stroke-width:1.0;"/><line style="stroke:#52606D;stroke-width:1.0;" x1="1217.959" x2="1217.959" y1="431.9395" y2="451.9395"/><polygon fill="#52606D" points="1213.959,441.9395,1217.959,451.9395,1221.959,441.9395,1217.959,445.9395" style="stroke:#52606D;stroke-width:1.0;"/><line style="stroke:#52606D;stroke-width:1.0;" x1="1425.9189" x2="1425.9189" y1="748.7207" y2="768.7207"/><polygon fill="#52606D" points="1421.9189,758.7207,1425.9189,768.7207,1429.9189,758.7207,1425.9189,762.7207" style="stroke:#52606D;stroke-width:1.0;"/><line style="stroke:#52606D;stroke-width:1.0;" x1="1425.9189" x2="1425.9189" y1="830.627" y2="850.627"/><polygon fill="#52606D" points="1421.9189,840.627,1425.9189,850.627,1429.9189,840.627,1425.9189,844.627" style="stroke:#52606D;stroke-width:1.0;"/><line style="stroke:#52606D;stroke-width:1.0;" x1="442.3677" x2="442.3677" y1="160.1895" y2="165.1895"/><line style="stroke:#52606D;stroke-width:1.0;" x1="442.3677" x2="986.001" y1="165.1895" y2="165.1895"/><line style="stroke:#52606D;stroke-width:1.0;" x1="986.001" x2="986.001" y1="165.1895" y2="180.1895"/><polygon fill="#52606D" points="982.001,170.1895,986.001,180.1895,990.001,170.1895,986.001,174.1895" style="stroke:#52606D;stroke-width:1.0;"/><line style="stroke:#52606D;stroke-width:1.0;" x1="986.001" x2="986.001" y1="242.0957" y2="247.0957"/><line style="stroke:#52606D;stroke-width:1.0;" x1="986.001" x2="442.3677" y1="247.0957" y2="247.0957"/><line style="stroke:#52606D;stroke-width:1.0;" x1="442.3677" x2="442.3677" y1="247.0957" y2="262.0957"/><polygon fill="#52606D" points="438.3677,252.0957,442.3677,262.0957,446.3677,252.0957,442.3677,256.0957" style="stroke:#52606D;stroke-width:1.0;"/><line style="stroke:#52606D;stroke-width:1.0;" x1="442.3677" x2="442.3677" y1="310.0332" y2="315.0332"/><line style="stroke:#52606D;stroke-width:1.0;" x1="442.3677" x2="986.001" y1="315.0332" y2="315.0332"/><line style="stroke:#52606D;stroke-width:1.0;" x1="986.001" x2="986.001" y1="315.0332" y2="330.0332"/><polygon fill="#52606D" points="982.001,320.0332,986.001,330.0332,990.001,320.0332,986.001,324.0332" style="stroke:#52606D;stroke-width:1.0;"/><line style="stroke:#52606D;stroke-width:1.0;" x1="986.001" x2="986.001" y1="364.002" y2="369.002"/><line style="stroke:#52606D;stroke-width:1.0;" x1="986.001" x2="1217.959" y1="369.002" y2="369.002"/><line style="stroke:#52606D;stroke-width:1.0;" x1="1217.959" x2="1217.959" y1="369.002" y2="384.002"/><polygon fill="#52606D" points="1213.959,374.002,1217.959,384.002,1221.959,374.002,1217.959,378.002" style="stroke:#52606D;stroke-width:1.0;"/><line style="stroke:#52606D;stroke-width:1.0;" x1="1425.9189" x2="1425.9189" y1="898.5645" y2="903.5645"/><line style="stroke:#52606D;stroke-width:1.0;" x1="1425.9189" x2="986.001" y1="903.5645" y2="903.5645"/><line style="stroke:#52606D;stroke-width:1.0;" x1="986.001" x2="986.001" y1="903.5645" y2="918.5645"/><polygon fill="#52606D" points="982.001,908.5645,986.001,918.5645,990.001,908.5645,986.001,912.5645" style="stroke:#52606D;stroke-width:1.0;"/><line style="stroke:#52606D;stroke-width:1.0;" x1="442.3677" x2="442.3677" y1="1246.8613" y2="1251.8613"/><line style="stroke:#52606D;stroke-width:1.0;" x1="442.3677" x2="986.001" y1="1251.8613" y2="1251.8613"/><line style="stroke:#52606D;stroke-width:1.0;" x1="986.001" x2="986.001" y1="1251.8613" y2="1266.8613"/><polygon fill="#52606D" points="982.001,1256.8613,986.001,1266.8613,990.001,1256.8613,986.001,1260.8613" style="stroke:#52606D;stroke-width:1.0;"/><line style="stroke:#52606D;stroke-width:1.0;" x1="986.001" x2="986.001" y1="1300.8301" y2="1308.3379"/><line style="stroke:#52606D;stroke-width:1.0;" x1="986.001" x2="442.3677" y1="1308.3379" y2="1308.3379"/><line style="stroke:#52606D;stroke-width:1.0;" x1="442.3677" x2="442.3677" y1="1308.3379" y2="1320.8301"/><polygon fill="#52606D" points="438.3677,1310.8301,442.3677,1320.8301,446.3677,1310.8301,442.3677,1314.8301" style="stroke:#52606D;stroke-width:1.0;"/><line style="stroke:#52606D;stroke-width:1.0;" x1="986.001" x2="986.001" y1="952.5332" y2="957.5332"/><line style="stroke:#52606D;stroke-width:1.0;" x1="986.001" x2="442.3677" y1="957.5332" y2="957.5332"/><line style="stroke:#52606D;stroke-width:1.0;" x1="442.3677" x2="442.3677" y1="957.5332" y2="972.5332"/><polygon fill="#52606D" points="438.3677,962.5332,442.3677,972.5332,446.3677,962.5332,442.3677,966.5332" style="stroke:#52606D;stroke-width:1.0;"/><text fill="#2D2438" font-family="DejaVu Sans" font-size="12" lengthAdjust="spacing" textLength="90.0703" x="385.3325" y="78.3906">Pessoa usu&#225;ria</text><text fill="#2D2438" font-family="DejaVu Sans" font-size="12" lengthAdjust="spacing" textLength="80.1445" x="944.9287" y="78.3906">Tela (Next.js)</text><text fill="#2D2438" font-family="DejaVu Sans" font-size="12" lengthAdjust="spacing" textLength="102.3223" x="1171.2979" y="78.3906">API (Spring Boot)</text><text fill="#2D2438" font-family="DejaVu Sans" font-size="12" lengthAdjust="spacing" textLength="102.0117" x="1373.9131" y="78.3906">Dados e servi&#231;os</text><!--SRC=[XLHVR-9647_tfnXTNnA9n8G3adCUJWRR4T8LA2PLfL956-z2DcVl-dRNf9TBf3xr0rJz0gTAFQbzx6FVZczodwHZ6pWJ71KXC3F3xFp-xEYtNAH4aGIkIVHseMGcQ5_6Ki4tGV6ozBP2tn0gxxXOm9p4cbKobCr95fj02ZCa2OCN7hibtsSG4g5VrDU5_9x1IQkIDDp4x6kgKqaLOqLI2QRWf5r9k4h9k_MydLQtsVKgII4DWmyMGAy6ckVtyenKbAbrr3lh-wTd6Cs7s3Jjj8DMstgij2MHuKjktZ_J-Yne8sjFMlUwhpf1PxTroskrN-R7UPmaKj2wAJj1jQ3QCMYUURqJJ8Q6g6tBfdjwwcBGtpPfzpgTxiiT0FgE9p4HQswgJVkzVhVdOtIwqM9traUh40acGQi3Ntxv7K8MIx3XLYua16_SmGI-_FeRKAuODn9I9HCPSIb8NCIZB9K914JVO0pSmKmWiWMEHD0PG79QAQ5C5wqNJA7T0D_HwX_AyG2MGAlPwXwTD8-QNJZGaUAfqJPTzz3sidDeMGzZfhKaaEbizL5nyc3fd27BSQyL0pkIE8JG3R2l5H5Ksp_gE5lyT6uzJ5bCu638VZR7j_hmmNBwH2cs820ru5Z59nWiceaBVmesIRcTi4t3sg1DQCB5USrCZkP90nJJ2uBJEOYDerdbBaKpuGxoGnEY8c97B6RNgc2eRjhnA7nw_f7YYnjaw0EdZxPYbB44_-cE1t0GfYg_o3qfJG6rgE-Zu4h6CLF7PVLCvBALoP2f9O_OyQOFdyF1HcZA8auvbQyFmTmmWThmv11jvBIRhy0RJFp1T7Jb-Vs1D_16C_7vRryZsXBhxUeZp2L7pV_y_6zvO4ap958RXVG3MN8jpx6VDZArcA1yRZruXIGCT3xNwfFK2EFDwYy7IknN9VQPA4neU1x1oPCqVyHmXl_3hy84LrWpvp73t_EOS5MjFBUSIqqSkCY8eWZ-NOQOHtUuYMP82ObtQPc986_mb2i7yUAu3W8W9jF5PPZuuOKxTNC-2leOTKsHqCpKwUkQZCJydcpOYP0xaZieHPf8dSToXG9o3pBBQIIhJwi_zXJ2NM2Y6pZu3fk_pWCHqImNLgTCQAAsbeoaGEW5ZBmCjVq_ms6FX6jTvw5jAjuJh05hdvltMraQ-pfbpsd2zfds1k7O7uP8TGDggDvWHeHpfefBk5uuk9Iof78bqQBFOyVrW_fGObWTug-vyic1_kLuzEsL_yDuC2acAtzVbcCEtT6LF-oFXjD9uP22fyAo3TYpQ0DssSclKXr3ReeLIqO7GkCQpqonc1jFBBiPj2yfgsNpClIzd3IyXgLvy7dFhKZH4x-UR-vjpNgMwNy0]--></g></svg>