<svg xmlns="http://www.w3.org/2000/svg" width="240" height="300" viewBox="0 0 240 300"><title>Fashion AI · Noturno Nº02</title>
  <defs>
    <clipPath id="fclip2"><path fill-rule="evenodd" d="M10,10 H230 V290 H10 Z M28,28 H212 V272 H28 Z"/></clipPath>
    <clipPath id="fclip2-painel"><rect x="28" y="82" width="184" height="160"/></clipPath>
    <clipPath id="fclip2-sacola"><path d="M58.0,122 Q120.0,112 182.0,122 L170.0,234 Q120.0,242 70.0,234 Z"/></clipPath>
    <linearGradient id="fg2-base" x1="0" y1="0" x2="1" y2="1"><stop offset="0" stop-color="#2A2622"/><stop offset="1" stop-color="#0E0D0B"/></linearGradient>
    <linearGradient id="fg2-side" x1="0" y1="0" x2="1" y2="0"><stop offset="0" stop-color="#000" stop-opacity="0.22"/><stop offset="0.35" stop-color="#000" stop-opacity="0"/><stop offset="0.7" stop-color="#fff" stop-opacity="0"/><stop offset="1" stop-color="#fff" stop-opacity="0.12"/></linearGradient>
  </defs><g id="fai-02">
  <path id="papel" fill="#FBF9F4" fill-rule="evenodd" d="M0,0 H240 V300 H0 Z M-4.2,6.0 a4.2,4.2 0 1,0 8.4,0 a4.2,4.2 0 1,0 -8.4,0 Z M235.8,6.0 a4.2,4.2 0 1,0 8.4,0 a4.2,4.2 0 1,0 -8.4,0 Z M-4.2,18.0 a4.2,4.2 0 1,0 8.4,0 a4.2,4.2 0 1,0 -8.4,0 Z M235.8,18.0 a4.2,4.2 0 1,0 8.4,0 a4.2,4.2 0 1,0 -8.4,0 Z M-4.2,30.0 a4.2,4.2 0 1,0 8.4,0 a4.2,4.2 0 1,0 -8.4,0 Z M235.8,30.0 a4.2,4.2 0 1,0 8.4,0 a4.2,4.2 0 1,0 -8.4,0 Z M-4.2,42.0 a4.2,4.2 0 1,0 8.4,0 a4.2,4.2 0 1,0 -8.4,0 Z M235.8,42.0 a4.2,4.2 0 1,0 8.4,0 a4.2,4.2 0 1,0 -8.4,0 Z M-4.2,54.0 a4.2,4.2 0 1,0 8.4,0 a4.2,4.2 0 1,0 -8.4,0 Z M235.8,54.0 a4.2,4.2 0 1,0 8.4,0 a4.2,4.2 0 1,0 -8.4,0 Z M-4.2,66.0 a4.2,4.2 0 1,0 8.4,0 a4.2,4.2 0 1,0 -8.4,0 Z M235.8,66.0 a4.2,4.2 0 1,0 8.4,0 a4.2,4.2 0 1,0 -8.4,0 Z M-4.2,78.0 a4.2,4.2 0 1,0 8.4,0 a4.2,4.2 0 1,0 -8.4,0 Z M235.8,78.0 a4.2,4.2 0 1,0 8.4,0 a4.2,4.2 0 1,0 -8.4,0 Z M-4.2,90.0 a4.2,4.2 0 1,0 8.4,0 a4.2,4.2 0 1,0 -8.4,0 Z M235.8,90.0 a4.2,4.2 0 1,0 8.4,0 a4.2,4.2 0 1,0 -8.4,0 Z M-4.2,102.0 a4.2,4.2 0 1,0 8.4,0 a4.2,4.2 0 1,0 -8.4,0 Z M235.8,102.0 a4.2,4.2 0 1,0 8.4,0 a4.2,4.2 0 1,0 -8.4,0 Z M-4.2,114.0 a4.2,4.2 0 1,0 8.4,0 a4.2,4.2 0 1,0 -8.4,0 Z M235.8,114.0 a4.2,4.2 0 1,0 8.4,0 a4.2,4.2 0 1,0 -8.4,0 Z M-4.2,126.0 a4.2,4.2 0 1,0 8.4,0 a4.2,4.2 0 1,0 -8.4,0 Z M235.8,126.0 a4.2,4.2 0 1,0 8.4,0 a4.2,4.2 0 1,0 -8.4,0 Z M-4.2,138.0 a4.2,4.2 0 1,0 8.4,0 a4.2,4.2 0 1,0 -8.4,0 Z M235.8,138.0 a4.2,4.2 0 1,0 8.4,0 a4.2,4.2 0 1,0 -8.4,0 Z M-4.2,150.0 a4.2,4.2 0 1,0 8.4,0 a4.2,4.2 0 1,0 -8.4,0 Z M235.8,150.0 a4.2,4.2 0 1,0 8.4,0 a4.2,4.2 0 1,0 -8.4,0 Z M-4.2,162.0 a4.2,4.2 0 1,0 8.4,0 a4.2,4.2 0 1,0 -8.4,0 Z M235.8,162.0 a4.2,4.2 0 1,0 8.4,0 a4.2,4.2 0 1,0 -8.4,0 Z M-4.2,174.0 a4.2,4.2 0 1,0 8.4,0 a4.2,4.2 0 1,0 -8.4,0 Z M235.8,174.0 a4.2,4.2 0 1,0 8.4,0 a4.2,4.2 0 1,0 -8.4,0 Z M-4.2,186.0 a4.2,4.2 0 1,0 8.4,0 a4.2,4.2 0 1,0 -8.4,0 Z M235.8,186.0 a4.2,4.2 0 1,0 8.4,0 a4.2,4.2 0 1,0 -8.4,0 Z M-4.2,198.0 a4.2,4.2 0 1,0 8.4,0 a4.2,4.2 0 1,0 -8.4,0 Z M235.8,198.0 a4.2,4.2 0 1,0 8.4,0 a4.2,4.2 0 1,0 -8.4,0 Z M-4.2,210.0 a4.2,4.2 0 1,0 8.4,0 a4.2,4.2 0 1,0 -8.4,0 Z M235.8,210.0 a4.2,4.2 0 1,0 8.4,0 a4.2,4.2 0 1,0 -8.4,0 Z M-4.2,222.0 a4.2,4.2 0 1,0 8.4,0 a4.2,4.2 0 1,0 -8.4,0 Z M235.8,222.0 a4.2,4.2 0 1,0 8.4,0 a4.2,4.2 0 1,0 -8.4,0 Z M-4.2,234.0 a4.2,4.2 0 1,0 8.4,0 a4.2,4.2 0 1,0 -8.4,0 Z M235.8,234.0 a4.2,4.2 0 1,0 8.4,0 a4.2,4.2 0 1,0 -8.4,0 Z M-4.2,246.0 a4.2,4.2 0 1,0 8.4,0 a4.2,4.2 0 1,0 -8.4,0 Z M235.8,246.0 a4.2,4.2 0 1,0 8.4,0 a4.2,4.2 0 1,0 -8.4,0 Z M-4.2,258.0 a4.2,4.2 0 1,0 8.4,0 a4.2,4.2 0 1,0 -8.4,0 Z M235.8,258.0 a4.2,4.2 0 1,0 8.4,0 a4.2,4.2 0 1,0 -8.4,0 Z M-4.2,270.0 a4.2,4.2 0 1,0 8.4,0 a4.2,4.2 0 1,0 -8.4,0 Z M235.8,270.0 a4.2,4.2 0 1,0 8.4,0 a4.2,4.2 0 1,0 -8.4,0 Z M-4.2,282.0 a4.2,4.2 0 1,0 8.4,0 a4.2,4.2 0 1,0 -8.4,0 Z M235.8,282.0 a4.2,4.2 0 1,0 8.4,0 a4.2,4.2 0 1,0 -8.4,0 Z M-4.2,294.0 a4.2,4.2 0 1,0 8.4,0 a4.2,4.2 0 1,0 -8.4,0 Z M235.8,294.0 a4.2,4.2 0 1,0 8.4,0 a4.2,4.2 0 1,0 -8.4,0 Z M1.8,0.0 a4.2,4.2 0 1,0 8.4,0 a4.2,4.2 0 1,0 -8.4,0 Z M1.8,300.0 a4.2,4.2 0 1,0 8.4,0 a4.2,4.2 0 1,0 -8.4,0 Z M13.8,0.0 a4.2,4.2 0 1,0 8.4,0 a4.2,4.2 0 1,0 -8.4,0 Z M13.8,300.0 a4.2,4.2 0 1,0 8.4,0 a4.2,4.2 0 1,0 -8.4,0 Z M25.8,0.0 a4.2,4.2 0 1,0 8.4,0 a4.2,4.2 0 1,0 -8.4,0 Z M25.8,300.0 a4.2,4.2 0 1,0 8.4,0 a4.2,4.2 0 1,0 -8.4,0 Z M37.8,0.0 a4.2,4.2 0 1,0 8.4,0 a4.2,4.2 0 1,0 -8.4,0 Z M37.8,300.0 a4.2,4.2 0 1,0 8.4,0 a4.2,4.2 0 1,0 -8.4,0 Z M49.8,0.0 a4.2,4.2 0 1,0 8.4,0 a4.2,4.2 0 1,0 -8.4,0 Z M49.8,300.0 a4.2,4.2 0 1,0 8.4,0 a4.2,4.2 0 1,0 -8.4,0 Z M61.8,0.0 a4.2,4.2 0 1,0 8.4,0 a4.2,4.2 0 1,0 -8.4,0 Z M61.8,300.0 a4.2,4.2 0 1,0 8.4,0 a4.2,4.2 0 1,0 -8.4,0 Z M73.8,0.0 a4.2,4.2 0 1,0 8.4,0 a4.2,4.2 0 1,0 -8.4,0 Z M73.8,300.0 a4.2,4.2 0 1,0 8.4,0 a4.2,4.2 0 1,0 -8.4,0 Z M85.8,0.0 a4.2,4.2 0 1,0 8.4,0 a4.2,4.2 0 1,0 -8.4,0 Z M85.8,300.0 a4.2,4.2 0 1,0 8.4,0 a4.2,4.2 0 1,0 -8.4,0 Z M97.8,0.0 a4.2,4.2 0 1,0 8.4,0 a4.2,4.2 0 1,0 -8.4,0 Z M97.8,300.0 a4.2,4.2 0 1,0 8.4,0 a4.2,4.2 0 1,0 -8.4,0 Z M109.8,0.0 a4.2,4.2 0 1,0 8.4,0 a4.2,4.2 0 1,0 -8.4,0 Z M109.8,300.0 a4.2,4.2 0 1,0 8.4,0 a4.2,4.2 0 1,0 -8.4,0 Z M121.8,0.0 a4.2,4.2 0 1,0 8.4,0 a4.2,4.2 0 1,0 -8.4,0 Z M121.8,300.0 a4.2,4.2 0 1,0 8.4,0 a4.2,4.2 0 1,0 -8.4,0 Z M133.8,0.0 a4.2,4.2 0 1,0 8.4,0 a4.2,4.2 0 1,0 -8.4,0 Z M133.8,300.0 a4.2,4.2 0 1,0 8.4,0 a4.2,4.2 0 1,0 -8.4,0 Z M145.8,0.0 a4.2,4.2 0 1,0 8.4,0 a4.2,4.2 0 1,0 -8.4,0 Z M145.8,300.0 a4.2,4.2 0 1,0 8.4,0 a4.2,4.2 0 1,0 -8.4,0 Z M157.8,0.0 a4.2,4.2 0 1,0 8.4,0 a4.2,4.2 0 1,0 -8.4,0 Z M157.8,300.0 a4.2,4.2 0 1,0 8.4,0 a4.2,4.2 0 1,0 -8.4,0 Z M169.8,0.0 a4.2,4.2 0 1,0 8.4,0 a4.2,4.2 0 1,0 -8.4,0 Z M169.8,300.0 a4.2,4.2 0 1,0 8.4,0 a4.2,4.2 0 1,0 -8.4,0 Z M181.8,0.0 a4.2,4.2 0 1,0 8.4,0 a4.2,4.2 0 1,0 -8.4,0 Z M181.8,300.0 a4.2,4.2 0 1,0 8.4,0 a4.2,4.2 0 1,0 -8.4,0 Z M193.8,0.0 a4.2,4.2 0 1,0 8.4,0 a4.2,4.2 0 1,0 -8.4,0 Z M193.8,300.0 a4.2,4.2 0 1,0 8.4,0 a4.2,4.2 0 1,0 -8.4,0 Z M205.8,0.0 a4.2,4.2 0 1,0 8.4,0 a4.2,4.2 0 1,0 -8.4,0 Z M205.8,300.0 a4.2,4.2 0 1,0 8.4,0 a4.2,4.2 0 1,0 -8.4,0 Z M217.8,0.0 a4.2,4.2 0 1,0 8.4,0 a4.2,4.2 0 1,0 -8.4,0 Z M217.8,300.0 a4.2,4.2 0 1,0 8.4,0 a4.2,4.2 0 1,0 -8.4,0 Z M229.8,0.0 a4.2,4.2 0 1,0 8.4,0 a4.2,4.2 0 1,0 -8.4,0 Z M229.8,300.0 a4.2,4.2 0 1,0 8.4,0 a4.2,4.2 0 1,0 -8.4,0 Z"/>
  <rect id="moldura" x="10" y="10" width="220" height="280" fill="#1C1A17"/>
  <g id="borda-rede" clip-path="url(#fclip2)"><g stroke="#F58220" stroke-width="1" opacity="0.9"><line x1="3.9" y1="6.7" x2="19.0" y2="7.3"/><line x1="3.9" y1="6.7" x2="6.1" y2="22.5"/><line x1="3.9" y1="6.7" x2="20.6" y2="20.4"/><line x1="19.0" y1="7.3" x2="36.6" y2="5.3"/><line x1="19.0" y1="7.3" x2="20.6" y2="20.4"/><line x1="36.6" y1="5.3" x2="51.7" y2="6.4"/><line x1="36.6" y1="5.3" x2="38.4" y2="19.0"/><line x1="36.6" y1="5.3" x2="49.2" y2="21.5"/><line x1="51.7" y1="6.4" x2="63.3" y2="6.2"/><line x1="51.7" y1="6.4" x2="49.2" y2="21.5"/><line x1="63.3" y1="6.2" x2="81.7" y2="6.1"/><line x1="63.3" y1="6.2" x2="66.8" y2="20.6"/><line x1="63.3" y1="6.2" x2="81.3" y2="20.6"/><line x1="81.7" y1="6.1" x2="98.3" y2="7.4"/><line x1="81.7" y1="6.1" x2="81.3" y2="20.6"/><line x1="98.3" y1="7.4" x2="110.3" y2="4.4"/><line x1="98.3" y1="7.4" x2="97.0" y2="23.3"/><line x1="98.3" y1="7.4" x2="113.0" y2="21.8"/><line x1="110.3" y1="4.4" x2="123.8" y2="7.9"/><line x1="110.3" y1="4.4" x2="113.0" y2="21.8"/><line x1="123.8" y1="7.9" x2="142.1" y2="6.7"/><line x1="123.8" y1="7.9" x2="125.8" y2="23.7"/><line x1="123.8" y1="7.9" x2="140.7" y2="21.8"/><line x1="142.1" y1="6.7" x2="155.7" y2="6.0"/><line x1="142.1" y1="6.7" x2="140.7" y2="21.8"/><line x1="155.7" y1="6.0" x2="169.3" y2="6.2"/><line x1="155.7" y1="6.0" x2="158.2" y2="22.1"/><line x1="155.7" y1="6.0" x2="170.3" y2="22.5"/><line x1="169.3" y1="6.2" x2="183.9" y2="6.7"/><line x1="169.3" y1="6.2" x2="170.3" y2="22.5"/><line x1="183.9" y1="6.7" x2="201.8" y2="7.0"/><line x1="183.9" y1="6.7" x2="186.6" y2="23.5"/><line x1="183.9" y1="6.7" x2="201.7" y2="21.2"/><line x1="201.8" y1="7.0" x2="214.5" y2="3.6"/><line x1="201.8" y1="7.0" x2="201.7" y2="21.2"/><line x1="214.5" y1="3.6" x2="230.0" y2="7.1"/><line x1="214.5" y1="3.6" x2="218.8" y2="21.2"/><line x1="214.5" y1="3.6" x2="230.4" y2="23.6"/><line x1="230.0" y1="7.1" x2="230.4" y2="23.6"/><line x1="6.1" y1="22.5" x2="20.6" y2="20.4"/><line x1="6.1" y1="22.5" x2="8.7" y2="34.0"/><line x1="20.6" y1="20.4" x2="38.4" y2="19.0"/><line x1="20.6" y1="20.4" x2="18.4" y2="38.1"/><line x1="20.6" y1="20.4" x2="38.3" y2="35.3"/><line x1="38.4" y1="19.0" x2="49.2" y2="21.5"/><line x1="38.4" y1="19.0" x2="38.3" y2="35.3"/><line x1="49.2" y1="21.5" x2="66.8" y2="20.6"/><line x1="49.2" y1="21.5" x2="49.5" y2="37.1"/><line x1="49.2" y1="21.5" x2="68.6" y2="34.3"/><line x1="66.8" y1="20.6" x2="81.3" y2="20.6"/><line x1="66.8" y1="20.6" x2="68.6" y2="34.3"/><line x1="81.3" y1="20.6" x2="97.0" y2="23.3"/><line x1="81.3" y1="20.6" x2="80.7" y2="37.0"/><line x1="81.3" y1="20.6" x2="94.3" y2="35.5"/><line x1="97.0" y1="23.3" x2="113.0" y2="21.8"/><line x1="97.0" y1="23.3" x2="94.3" y2="35.5"/><line x1="113.0" y1="21.8" x2="125.8" y2="23.7"/><line x1="113.0" y1="21.8" x2="108.9" y2="35.9"/><line x1="113.0" y1="21.8" x2="124.4" y2="33.5"/><line x1="125.8" y1="23.7" x2="140.7" y2="21.8"/><line x1="125.8" y1="23.7" x2="124.4" y2="33.5"/><line x1="140.7" y1="21.8" x2="158.2" y2="22.1"/><line x1="140.7" y1="21.8" x2="140.3" y2="33.9"/><line x1="140.7" y1="21.8" x2="153.7" y2="33.9"/><line x1="158.2" y1="22.1" x2="170.3" y2="22.5"/><line x1="158.2" y1="22.1" x2="153.7" y2="33.9"/><line x1="170.3" y1="22.5" x2="186.6" y2="23.5"/><line x1="170.3" y1="22.5" x2="170.5" y2="34.9"/><line x1="170.3" y1="22.5" x2="187.4" y2="35.5"/><line x1="186.6" y1="23.5" x2="201.7" y2="21.2"/><line x1="186.6" y1="23.5" x2="187.4" y2="35.5"/><line x1="201.7" y1="21.2" x2="218.8" y2="21.2"/><line x1="201.7" y1="21.2" x2="199.5" y2="34.1"/><line x1="201.7" y1="21.2" x2="214.8" y2="37.5"/><line x1="218.8" y1="21.2" x2="230.4" y2="23.6"/><line x1="218.8" y1="21.2" x2="214.8" y2="37.5"/><line x1="230.4" y1="23.6" x2="229.2" y2="35.8"/><line x1="8.7" y1="34.0" x2="18.4" y2="38.1"/><line x1="8.7" y1="34.0" x2="7.8" y2="53.0"/><line x1="8.7" y1="34.0" x2="20.8" y2="53.1"/><line x1="18.4" y1="38.1" x2="38.3" y2="35.3"/><line x1="18.4" y1="38.1" x2="20.8" y2="53.1"/><line x1="38.3" y1="35.3" x2="49.5" y2="37.1"/><line x1="38.3" y1="35.3" x2="36.9" y2="49.4"/><line x1="38.3" y1="35.3" x2="48.6" y2="49.0"/><line x1="49.5" y1="37.1" x2="68.6" y2="34.3"/><line x1="49.5" y1="37.1" x2="48.6" y2="49.0"/><line x1="68.6" y1="34.3" x2="80.7" y2="37.0"/><line x1="68.6" y1="34.3" x2="67.7" y2="50.3"/><line x1="68.6" y1="34.3" x2="83.0" y2="53.8"/><line x1="80.7" y1="37.0" x2="94.3" y2="35.5"/><line x1="80.7" y1="37.0" x2="83.0" y2="53.8"/><line x1="94.3" y1="35.5" x2="108.9" y2="35.9"/><line x1="94.3" y1="35.5" x2="98.5" y2="50.8"/><line x1="94.3" y1="35.5" x2="108.0" y2="49.7"/><line x1="108.9" y1="35.9" x2="124.4" y2="33.5"/><line x1="108.9" y1="35.9" x2="108.0" y2="49.7"/><line x1="124.4" y1="33.5" x2="140.3" y2="33.9"/><line x1="124.4" y1="33.5" x2="124.3" y2="51.9"/><line x1="124.4" y1="33.5" x2="142.2" y2="53.5"/><line x1="140.3" y1="33.9" x2="153.7" y2="33.9"/><line x1="140.3" y1="33.9" x2="142.2" y2="53.5"/><line x1="153.7" y1="33.9" x2="170.5" y2="34.9"/><line x1="153.7" y1="33.9" x2="157.2" y2="53.8"/><line x1="153.7" y1="33.9" x2="171.8" y2="50.8"/><line x1="170.5" y1="34.9" x2="187.4" y2="35.5"/><line x1="170.5" y1="34.9" x2="171.8" y2="50.8"/><line x1="187.4" y1="35.5" x2="199.5" y2="34.1"/><line x1="187.4" y1="35.5" x2="188.0" y2="49.6"/><line x1="187.4" y1="35.5" x2="202.7" y2="52.4"/><line x1="199.5" y1="34.1" x2="214.8" y2="37.5"/><line x1="199.5" y1="34.1" x2="202.7" y2="52.4"/><line x1="214.8" y1="37.5" x2="229.2" y2="35.8"/><line x1="214.8" y1="37.5" x2="218.2" y2="48.4"/><line x1="214.8" y1="37.5" x2="229.1" y2="53.7"/><line x1="229.2" y1="35.8" x2="229.1" y2="53.7"/><line x1="7.8" y1="53.0" x2="20.8" y2="53.1"/><line x1="7.8" y1="53.0" x2="3.9" y2="65.7"/><line x1="20.8" y1="53.1" x2="36.9" y2="49.4"/><line x1="20.8" y1="53.1" x2="21.6" y2="65.9"/><line x1="20.8" y1="53.1" x2="38.3" y2="68.7"/><line x1="36.9" y1="49.4" x2="48.6" y2="49.0"/><line x1="36.9" y1="49.4" x2="38.3" y2="68.7"/><line x1="48.6" y1="49.0" x2="67.7" y2="50.3"/><line x1="48.6" y1="49.0" x2="50.0" y2="63.8"/><line x1="48.6" y1="49.0" x2="68.5" y2="65.7"/><line x1="67.7" y1="50.3" x2="83.0" y2="53.8"/><line x1="67.7" y1="50.3" x2="68.5" y2="65.7"/><line x1="83.0" y1="53.8" x2="98.5" y2="50.8"/><line x1="83.0" y1="53.8" x2="79.5" y2="63.8"/><line x1="83.0" y1="53.8" x2="93.1" y2="66.5"/><line x1="98.5" y1="50.8" x2="108.0" y2="49.7"/><line x1="98.5" y1="50.8" x2="93.1" y2="66.5"/><line x1="108.0" y1="49.7" x2="124.3" y2="51.9"/><line x1="108.0" y1="49.7" x2="109.7" y2="66.3"/><line x1="108.0" y1="49.7" x2="128.5" y2="65.9"/><line x1="124.3" y1="51.9" x2="142.2" y2="53.5"/><line x1="124.3" y1="51.9" x2="128.5" y2="65.9"/><line x1="142.2" y1="53.5" x2="157.2" y2="53.8"/><line x1="142.2" y1="53.5" x2="143.7" y2="63.4"/><line x1="142.2" y1="53.5" x2="157.5" y2="67.5"/><line x1="157.2" y1="53.8" x2="171.8" y2="50.8"/><line x1="157.2" y1="53.8" x2="157.5" y2="67.5"/><line x1="171.8" y1="50.8" x2="188.0" y2="49.6"/><line x1="171.8" y1="50.8" x2="173.8" y2="63.2"/><line x1="171.8" y1="50.8" x2="186.0" y2="66.3"/><line x1="188.0" y1="49.6" x2="202.7" y2="52.4"/><line x1="188.0" y1="49.6" x2="186.0" y2="66.3"/><line x1="202.7" y1="52.4" x2="218.2" y2="48.4"/><line x1="202.7" y1="52.4" x2="201.6" y2="65.8"/><line x1="202.7" y1="52.4" x2="214.6" y2="68.4"/><line x1="218.2" y1="48.4" x2="229.1" y2="53.7"/><line x1="218.2" y1="48.4" x2="214.6" y2="68.4"/><line x1="229.1" y1="53.7" x2="233.3" y2="67.2"/><line x1="3.9" y1="65.7" x2="21.6" y2="65.9"/><line x1="3.9" y1="65.7" x2="8.8" y2="81.3"/><line x1="3.9" y1="65.7" x2="18.5" y2="82.2"/><line x1="21.6" y1="65.9" x2="38.3" y2="68.7"/><line x1="21.6" y1="65.9" x2="18.5" y2="82.2"/><line x1="38.3" y1="68.7" x2="50.0" y2="63.8"/><line x1="38.3" y1="68.7" x2="33.6" y2="82.5"/><line x1="38.3" y1="68.7" x2="51.9" y2="79.2"/><line x1="50.0" y1="63.8" x2="68.5" y2="65.7"/><line x1="50.0" y1="63.8" x2="51.9" y2="79.2"/><line x1="68.5" y1="65.7" x2="79.5" y2="63.8"/><line x1="68.5" y1="65.7" x2="63.9" y2="78.4"/><line x1="68.5" y1="65.7" x2="79.1" y2="83.9"/><line x1="79.5" y1="63.8" x2="93.1" y2="66.5"/><line x1="79.5" y1="63.8" x2="79.1" y2="83.9"/><line x1="93.1" y1="66.5" x2="109.7" y2="66.3"/><line x1="93.1" y1="66.5" x2="94.4" y2="83.3"/><line x1="93.1" y1="66.5" x2="108.8" y2="80.0"/><line x1="109.7" y1="66.3" x2="128.5" y2="65.9"/><line x1="109.7" y1="66.3" x2="108.8" y2="80.0"/><line x1="128.5" y1="65.9" x2="143.7" y2="63.4"/><line x1="128.5" y1="65.9" x2="125.8" y2="80.2"/><line x1="128.5" y1="65.9" x2="143.8" y2="79.4"/><line x1="143.7" y1="63.4" x2="157.5" y2="67.5"/><line x1="143.7" y1="63.4" x2="143.8" y2="79.4"/><line x1="157.5" y1="67.5" x2="173.8" y2="63.2"/><line x1="157.5" y1="67.5" x2="155.9" y2="79.2"/><line x1="157.5" y1="67.5" x2="168.7" y2="82.1"/><line x1="173.8" y1="63.2" x2="186.0" y2="66.3"/><line x1="173.8" y1="63.2" x2="168.7" y2="82.1"/><line x1="186.0" y1="66.3" x2="201.6" y2="65.8"/><line x1="186.0" y1="66.3" x2="185.0" y2="80.9"/><line x1="186.0" y1="66.3" x2="202.2" y2="78.5"/><line x1="201.6" y1="65.8" x2="214.6" y2="68.4"/><line x1="201.6" y1="65.8" x2="202.2" y2="78.5"/><line x1="214.6" y1="68.4" x2="233.3" y2="67.2"/><line x1="214.6" y1="68.4" x2="213.3" y2="82.1"/><line x1="214.6" y1="68.4" x2="234.0" y2="78.1"/><line x1="233.3" y1="67.2" x2="234.0" y2="78.1"/><line x1="8.8" y1="81.3" x2="18.5" y2="82.2"/><line x1="8.8" y1="81.3" x2="5.7" y2="99.0"/><line x1="18.5" y1="82.2" x2="33.6" y2="82.5"/><line x1="18.5" y1="82.2" x2="23.0" y2="98.9"/><line x1="18.5" y1="82.2" x2="36.2" y2="98.8"/><line x1="33.6" y1="82.5" x2="51.9" y2="79.2"/><line x1="33.6" y1="82.5" x2="36.2" y2="98.8"/><line x1="51.9" y1="79.2" x2="63.9" y2="78.4"/><line x1="51.9" y1="79.2" x2="48.3" y2="95.8"/><line x1="51.9" y1="79.2" x2="68.1" y2="95.3"/><line x1="63.9" y1="78.4" x2="79.1" y2="83.9"/><line x1="63.9" y1="78.4" x2="68.1" y2="95.3"/><line x1="79.1" y1="83.9" x2="94.4" y2="83.3"/><line x1="79.1" y1="83.9" x2="80.6" y2="95.7"/><line x1="79.1" y1="83.9" x2="95.3" y2="97.9"/><line x1="94.4" y1="83.3" x2="108.8" y2="80.0"/><line x1="94.4" y1="83.3" x2="95.3" y2="97.9"/><line x1="108.8" y1="80.0" x2="125.8" y2="80.2"/><line x1="108.8" y1="80.0" x2="113.8" y2="94.4"/><line x1="108.8" y1="80.0" x2="124.9" y2="97.8"/><line x1="125.8" y1="80.2" x2="143.8" y2="79.4"/><line x1="125.8" y1="80.2" x2="124.9" y2="97.8"/><line x1="143.8" y1="79.4" x2="155.9" y2="79.2"/><line x1="143.8" y1="79.4" x2="142.5" y2="97.9"/><line x1="143.8" y1="79.4" x2="157.1" y2="98.5"/><line x1="155.9" y1="79.2" x2="168.7" y2="82.1"/><line x1="155.9" y1="79.2" x2="157.1" y2="98.5"/><line x1="168.7" y1="82.1" x2="185.0" y2="80.9"/><line x1="168.7" y1="82.1" x2="173.1" y2="96.8"/><line x1="168.7" y1="82.1" x2="184.7" y2="93.5"/><line x1="185.0" y1="80.9" x2="202.2" y2="78.5"/><line x1="185.0" y1="80.9" x2="184.7" y2="93.5"/><line x1="202.2" y1="78.5" x2="213.3" y2="82.1"/><line x1="202.2" y1="78.5" x2="203.2" y2="98.1"/><line x1="202.2" y1="78.5" x2="218.3" y2="94.6"/><line x1="213.3" y1="82.1" x2="234.0" y2="78.1"/><line x1="213.3" y1="82.1" x2="218.3" y2="94.6"/><line x1="234.0" y1="78.1" x2="232.4" y2="98.6"/><line x1="5.7" y1="99.0" x2="23.0" y2="98.9"/><line x1="5.7" y1="99.0" x2="4.2" y2="108.1"/><line x1="5.7" y1="99.0" x2="19.0" y2="109.3"/><line x1="23.0" y1="98.9" x2="36.2" y2="98.8"/><line x1="23.0" y1="98.9" x2="19.0" y2="109.3"/><line x1="36.2" y1="98.8" x2="48.3" y2="95.8"/><line x1="36.2" y1="98.8" x2="37.1" y2="112.9"/><line x1="36.2" y1="98.8" x2="52.9" y2="112.1"/><line x1="48.3" y1="95.8" x2="68.1" y2="95.3"/><line x1="48.3" y1="95.8" x2="52.9" y2="112.1"/><line x1="68.1" y1="95.3" x2="80.6" y2="95.7"/><line x1="68.1" y1="95.3" x2="68.9" y2="113.8"/><line x1="68.1" y1="95.3" x2="80.6" y2="113.5"/><line x1="80.6" y1="95.7" x2="95.3" y2="97.9"/><line x1="80.6" y1="95.7" x2="80.6" y2="113.5"/><line x1="95.3" y1="97.9" x2="113.8" y2="94.4"/><line x1="95.3" y1="97.9" x2="97.3" y2="109.5"/><line x1="95.3" y1="97.9" x2="111.5" y2="109.0"/><line x1="113.8" y1="94.4" x2="124.9" y2="97.8"/><line x1="113.8" y1="94.4" x2="111.5" y2="109.0"/><line x1="124.9" y1="97.8" x2="142.5" y2="97.9"/><line x1="124.9" y1="97.8" x2="125.4" y2="112.9"/><line x1="124.9" y1="97.8" x2="138.1" y2="111.2"/><line x1="142.5" y1="97.9" x2="157.1" y2="98.5"/><line x1="142.5" y1="97.9" x2="138.1" y2="111.2"/><line x1="157.1" y1="98.5" x2="173.1" y2="96.8"/><line x1="157.1" y1="98.5" x2="155.6" y2="109.7"/><line x1="157.1" y1="98.5" x2="168.4" y2="111.1"/><line x1="173.1" y1="96.8" x2="184.7" y2="93.5"/><line x1="173.1" y1="96.8" x2="168.4" y2="111.1"/><line x1="184.7" y1="93.5" x2="203.2" y2="98.1"/><line x1="184.7" y1="93.5" x2="185.0" y2="108.6"/><line x1="184.7" y1="93.5" x2="200.4" y2="112.1"/><line x1="203.2" y1="98.1" x2="218.3" y2="94.6"/><line x1="203.2" y1="98.1" x2="200.4" y2="112.1"/><line x1="218.3" y1="94.6" x2="232.4" y2="98.6"/><line x1="218.3" y1="94.6" x2="213.5" y2="112.7"/><line x1="218.3" y1="94.6" x2="228.5" y2="110.8"/><line x1="232.4" y1="98.6" x2="228.5" y2="110.8"/><line x1="4.2" y1="108.1" x2="19.0" y2="109.3"/><line x1="4.2" y1="108.1" x2="5.2" y2="128.1"/><line x1="19.0" y1="109.3" x2="37.1" y2="112.9"/><line x1="19.0" y1="109.3" x2="23.4" y2="127.4"/><line x1="19.0" y1="109.3" x2="34.8" y2="124.9"/><line x1="37.1" y1="112.9" x2="52.9" y2="112.1"/><line x1="37.1" y1="112.9" x2="34.8" y2="124.9"/><line x1="52.9" y1="112.1" x2="68.9" y2="113.8"/><line x1="52.9" y1="112.1" x2="52.9" y2="126.1"/><line x1="52.9" y1="112.1" x2="66.8" y2="127.3"/><line x1="68.9" y1="113.8" x2="80.6" y2="113.5"/><line x1="68.9" y1="113.8" x2="66.8" y2="127.3"/><line x1="80.6" y1="113.5" x2="97.3" y2="109.5"/><line x1="80.6" y1="113.5" x2="79.2" y2="125.3"/><line x1="80.6" y1="113.5" x2="98.7" y2="125.0"/><line x1="97.3" y1="109.5" x2="111.5" y2="109.0"/><line x1="97.3" y1="109.5" x2="98.7" y2="125.0"/><line x1="111.5" y1="109.0" x2="125.4" y2="112.9"/><line x1="111.5" y1="109.0" x2="113.1" y2="123.9"/><line x1="111.5" y1="109.0" x2="123.1" y2="126.0"/><line x1="125.4" y1="112.9" x2="138.1" y2="111.2"/><line x1="125.4" y1="112.9" x2="123.1" y2="126.0"/><line x1="138.1" y1="111.2" x2="155.6" y2="109.7"/><line x1="138.1" y1="111.2" x2="139.7" y2="126.6"/><line x1="138.1" y1="111.2" x2="157.6" y2="123.2"/><line x1="155.6" y1="109.7" x2="168.4" y2="111.1"/><line x1="155.6" y1="109.7" x2="157.6" y2="123.2"/><line x1="168.4" y1="111.1" x2="185.0" y2="108.6"/><line x1="168.4" y1="111.1" x2="171.0" y2="125.2"/><line x1="168.4" y1="111.1" x2="188.4" y2="128.1"/><line x1="185.0" y1="108.6" x2="200.4" y2="112.1"/><line x1="185.0" y1="108.6" x2="188.4" y2="128.1"/><line x1="200.4" y1="112.1" x2="213.5" y2="112.7"/><line x1="200.4" y1="112.1" x2="203.3" y2="127.4"/><line x1="200.4" y1="112.1" x2="215.1" y2="126.7"/><line x1="213.5" y1="112.7" x2="228.5" y2="110.8"/><line x1="213.5" y1="112.7" x2="215.1" y2="126.7"/><line x1="228.5" y1="110.8" x2="231.3" y2="125.2"/><line x1="5.2" y1="128.1" x2="23.4" y2="127.4"/><line x1="5.2" y1="128.1" x2="4.7" y2="141.9"/><line x1="5.2" y1="128.1" x2="23.4" y2="139.5"/><line x1="23.4" y1="127.4" x2="34.8" y2="124.9"/><line x1="23.4" y1="127.4" x2="23.4" y2="139.5"/><line x1="34.8" y1="124.9" x2="52.9" y2="126.1"/><line x1="34.8" y1="124.9" x2="35.1" y2="138.9"/><line x1="34.8" y1="124.9" x2="50.2" y2="140.3"/><line x1="52.9" y1="126.1" x2="66.8" y2="127.3"/><line x1="52.9" y1="126.1" x2="50.2" y2="140.3"/><line x1="66.8" y1="127.3" x2="79.2" y2="125.3"/><line x1="66.8" y1="127.3" x2="63.6" y2="141.9"/><line x1="66.8" y1="127.3" x2="80.1" y2="142.8"/><line x1="79.2" y1="125.3" x2="98.7" y2="125.0"/><line x1="79.2" y1="125.3" x2="80.1" y2="142.8"/><line x1="98.7" y1="125.0" x2="113.1" y2="123.9"/><line x1="98.7" y1="125.0" x2="94.5" y2="142.4"/><line x1="98.7" y1="125.0" x2="113.9" y2="139.0"/><line x1="113.1" y1="123.9" x2="123.1" y2="126.0"/><line x1="113.1" y1="123.9" x2="113.9" y2="139.0"/><line x1="123.1" y1="126.0" x2="139.7" y2="126.6"/><line x1="123.1" y1="126.0" x2="125.2" y2="143.8"/><line x1="123.1" y1="126.0" x2="140.4" y2="140.0"/><line x1="139.7" y1="126.6" x2="157.6" y2="123.2"/><line x1="139.7" y1="126.6" x2="140.4" y2="140.0"/><line x1="157.6" y1="123.2" x2="171.0" y2="125.2"/><line x1="157.6" y1="123.2" x2="153.9" y2="143.0"/><line x1="157.6" y1="123.2" x2="170.0" y2="143.3"/><line x1="171.0" y1="125.2" x2="188.4" y2="128.1"/><line x1="171.0" y1="125.2" x2="170.0" y2="143.3"/><line x1="188.4" y1="128.1" x2="203.3" y2="127.4"/><line x1="188.4" y1="128.1" x2="186.3" y2="139.1"/><line x1="188.4" y1="128.1" x2="204.0" y2="143.4"/><line x1="203.3" y1="127.4" x2="215.1" y2="126.7"/><line x1="203.3" y1="127.4" x2="204.0" y2="143.4"/><line x1="215.1" y1="126.7" x2="231.3" y2="125.2"/><line x1="215.1" y1="126.7" x2="217.5" y2="141.6"/><line x1="215.1" y1="126.7" x2="232.5" y2="143.7"/><line x1="231.3" y1="125.2" x2="232.5" y2="143.7"/><line x1="4.7" y1="141.9" x2="23.4" y2="139.5"/><line x1="4.7" y1="141.9" x2="4.2" y2="154.4"/><line x1="23.4" y1="139.5" x2="35.1" y2="138.9"/><line x1="23.4" y1="139.5" x2="22.6" y2="155.5"/><line x1="23.4" y1="139.5" x2="38.9" y2="158.0"/><line x1="35.1" y1="138.9" x2="50.2" y2="140.3"/><line x1="35.1" y1="138.9" x2="38.9" y2="158.0"/><line x1="50.2" y1="140.3" x2="63.6" y2="141.9"/><line x1="50.2" y1="140.3" x2="51.1" y2="154.0"/><line x1="50.2" y1="140.3" x2="66.7" y2="156.6"/><line x1="63.6" y1="141.9" x2="80.1" y2="142.8"/><line x1="63.6" y1="141.9" x2="66.7" y2="156.6"/><line x1="80.1" y1="142.8" x2="94.5" y2="142.4"/><line x1="80.1" y1="142.8" x2="81.5" y2="157.7"/><line x1="80.1" y1="142.8" x2="95.9" y2="158.4"/><line x1="94.5" y1="142.4" x2="113.9" y2="139.0"/><line x1="94.5" y1="142.4" x2="95.9" y2="158.4"/><line x1="113.9" y1="139.0" x2="125.2" y2="143.8"/><line x1="113.9" y1="139.0" x2="111.6" y2="154.0"/><line x1="113.9" y1="139.0" x2="127.9" y2="154.0"/><line x1="125.2" y1="143.8" x2="140.4" y2="140.0"/><line x1="125.2" y1="143.8" x2="127.9" y2="154.0"/><line x1="140.4" y1="140.0" x2="153.9" y2="143.0"/><line x1="140.4" y1="140.0" x2="143.4" y2="158.6"/><line x1="140.4" y1="140.0" x2="154.2" y2="154.2"/><line x1="153.9" y1="143.0" x2="170.0" y2="143.3"/><line x1="153.9" y1="143.0" x2="154.2" y2="154.2"/><line x1="170.0" y1="143.3" x2="186.3" y2="139.1"/><line x1="170.0" y1="143.3" x2="172.2" y2="155.7"/><line x1="170.0" y1="143.3" x2="185.2" y2="157.5"/><line x1="186.3" y1="139.1" x2="204.0" y2="143.4"/><line x1="186.3" y1="139.1" x2="185.2" y2="157.5"/><line x1="204.0" y1="143.4" x2="217.5" y2="141.6"/><line x1="204.0" y1="143.4" x2="200.0" y2="153.8"/><line x1="204.0" y1="143.4" x2="216.3" y2="158.3"/><line x1="217.5" y1="141.6" x2="232.5" y2="143.7"/><line x1="217.5" y1="141.6" x2="216.3" y2="158.3"/><line x1="232.5" y1="143.7" x2="233.8" y2="153.6"/><line x1="4.2" y1="154.4" x2="22.6" y2="155.5"/><line x1="4.2" y1="154.4" x2="7.5" y2="169.9"/><line x1="4.2" y1="154.4" x2="23.8" y2="170.3"/><line x1="22.6" y1="155.5" x2="38.9" y2="158.0"/><line x1="22.6" y1="155.5" x2="23.8" y2="170.3"/><line x1="38.9" y1="158.0" x2="51.1" y2="154.0"/><line x1="38.9" y1="158.0" x2="33.6" y2="170.0"/><line x1="38.9" y1="158.0" x2="51.1" y2="169.1"/><line x1="51.1" y1="154.0" x2="66.7" y2="156.6"/><line x1="51.1" y1="154.0" x2="51.1" y2="169.1"/><line x1="66.7" y1="156.6" x2="81.5" y2="157.7"/><line x1="66.7" y1="156.6" x2="67.6" y2="170.0"/><line x1="66.7" y1="156.6" x2="82.5" y2="169.4"/><line x1="81.5" y1="157.7" x2="95.9" y2="158.4"/><line x1="81.5" y1="157.7" x2="82.5" y2="169.4"/><line x1="95.9" y1="158.4" x2="111.6" y2="154.0"/><line x1="95.9" y1="158.4" x2="95.9" y2="172.0"/><line x1="95.9" y1="158.4" x2="109.2" y2="169.7"/><line x1="111.6" y1="154.0" x2="127.9" y2="154.0"/><line x1="111.6" y1="154.0" x2="109.2" y2="169.7"/><line x1="127.9" y1="154.0" x2="143.4" y2="158.6"/><line x1="127.9" y1="154.0" x2="128.0" y2="170.4"/><line x1="127.9" y1="154.0" x2="140.1" y2="171.7"/><line x1="143.4" y1="158.6" x2="154.2" y2="154.2"/><line x1="143.4" y1="158.6" x2="140.1" y2="171.7"/><line x1="154.2" y1="154.2" x2="172.2" y2="155.7"/><line x1="154.2" y1="154.2" x2="157.1" y2="173.2"/><line x1="154.2" y1="154.2" x2="171.4" y2="173.1"/><line x1="172.2" y1="155.7" x2="185.2" y2="157.5"/><line x1="172.2" y1="155.7" x2="171.4" y2="173.1"/><line x1="185.2" y1="157.5" x2="200.0" y2="153.8"/><line x1="185.2" y1="157.5" x2="188.4" y2="173.6"/><line x1="185.2" y1="157.5" x2="203.5" y2="172.2"/><line x1="200.0" y1="153.8" x2="216.3" y2="158.3"/><line x1="200.0" y1="153.8" x2="203.5" y2="172.2"/><line x1="216.3" y1="158.3" x2="233.8" y2="153.6"/><line x1="216.3" y1="158.3" x2="217.2" y2="170.3"/><line x1="216.3" y1="158.3" x2="228.6" y2="173.5"/><line x1="233.8" y1="153.6" x2="228.6" y2="173.5"/><line x1="7.5" y1="169.9" x2="23.8" y2="170.3"/><line x1="7.5" y1="169.9" x2="5.5" y2="185.0"/><line x1="23.8" y1="170.3" x2="33.6" y2="170.0"/><line x1="23.8" y1="170.3" x2="21.3" y2="187.5"/><line x1="23.8" y1="170.3" x2="38.0" y2="183.7"/><line x1="33.6" y1="170.0" x2="51.1" y2="169.1"/><line x1="33.6" y1="170.0" x2="38.0" y2="183.7"/><line x1="51.1" y1="169.1" x2="67.6" y2="170.0"/><line x1="51.1" y1="169.1" x2="52.7" y2="188.6"/><line x1="51.1" y1="169.1" x2="68.9" y2="188.7"/><line x1="67.6" y1="170.0" x2="82.5" y2="169.4"/><line x1="67.6" y1="170.0" x2="68.9" y2="188.7"/><line x1="82.5" y1="169.4" x2="95.9" y2="172.0"/><line x1="82.5" y1="169.4" x2="81.4" y2="188.3"/><line x1="82.5" y1="169.4" x2="96.5" y2="188.1"/><line x1="95.9" y1="172.0" x2="109.2" y2="169.7"/><line x1="95.9" y1="172.0" x2="96.5" y2="188.1"/><line x1="109.2" y1="169.7" x2="128.0" y2="170.4"/><line x1="109.2" y1="169.7" x2="113.9" y2="185.2"/><line x1="109.2" y1="169.7" x2="123.7" y2="187.5"/><line x1="128.0" y1="170.4" x2="140.1" y2="171.7"/><line x1="128.0" y1="170.4" x2="123.7" y2="187.5"/><line x1="140.1" y1="171.7" x2="157.1" y2="173.2"/><line x1="140.1" y1="171.7" x2="143.6" y2="188.4"/><line x1="140.1" y1="171.7" x2="155.8" y2="185.7"/><line x1="157.1" y1="173.2" x2="171.4" y2="173.1"/><line x1="157.1" y1="173.2" x2="155.8" y2="185.7"/><line x1="171.4" y1="173.1" x2="188.4" y2="173.6"/><line x1="171.4" y1="173.1" x2="168.7" y2="188.1"/><line x1="171.4" y1="173.1" x2="184.6" y2="183.7"/><line x1="188.4" y1="173.6" x2="203.5" y2="172.2"/><line x1="188.4" y1="173.6" x2="184.6" y2="183.7"/><line x1="203.5" y1="172.2" x2="217.2" y2="170.3"/><line x1="203.5" y1="172.2" x2="198.6" y2="188.6"/><line x1="203.5" y1="172.2" x2="215.5" y2="187.8"/><line x1="217.2" y1="170.3" x2="228.6" y2="173.5"/><line x1="217.2" y1="170.3" x2="215.5" y2="187.8"/><line x1="228.6" y1="173.5" x2="228.4" y2="185.9"/><line x1="5.5" y1="185.0" x2="21.3" y2="187.5"/><line x1="5.5" y1="185.0" x2="7.5" y2="202.6"/><line x1="5.5" y1="185.0" x2="19.1" y2="200.9"/><line x1="21.3" y1="187.5" x2="38.0" y2="183.7"/><line x1="21.3" y1="187.5" x2="19.1" y2="200.9"/><line x1="38.0" y1="183.7" x2="52.7" y2="188.6"/><line x1="38.0" y1="183.7" x2="37.9" y2="203.5"/><line x1="38.0" y1="183.7" x2="48.6" y2="201.5"/><line x1="52.7" y1="188.6" x2="68.9" y2="188.7"/><line x1="52.7" y1="188.6" x2="48.6" y2="201.5"/><line x1="68.9" y1="188.7" x2="81.4" y2="188.3"/><line x1="68.9" y1="188.7" x2="68.3" y2="201.7"/><line x1="68.9" y1="188.7" x2="82.7" y2="199.8"/><line x1="81.4" y1="188.3" x2="96.5" y2="188.1"/><line x1="81.4" y1="188.3" x2="82.7" y2="199.8"/><line x1="96.5" y1="188.1" x2="113.9" y2="185.2"/><line x1="96.5" y1="188.1" x2="96.0" y2="198.1"/><line x1="96.5" y1="188.1" x2="112.8" y2="201.4"/><line x1="113.9" y1="185.2" x2="123.7" y2="187.5"/><line x1="113.9" y1="185.2" x2="112.8" y2="201.4"/><line x1="123.7" y1="187.5" x2="143.6" y2="188.4"/><line x1="123.7" y1="187.5" x2="124.1" y2="203.6"/><line x1="123.7" y1="187.5" x2="139.3" y2="198.2"/><line x1="143.6" y1="188.4" x2="155.8" y2="185.7"/><line x1="143.6" y1="188.4" x2="139.3" y2="198.2"/><line x1="155.8" y1="185.7" x2="168.7" y2="188.1"/><line x1="155.8" y1="185.7" x2="157.3" y2="198.5"/><line x1="155.8" y1="185.7" x2="172.0" y2="198.8"/><line x1="168.7" y1="188.1" x2="184.6" y2="183.7"/><line x1="168.7" y1="188.1" x2="172.0" y2="198.8"/><line x1="184.6" y1="183.7" x2="198.6" y2="188.6"/><line x1="184.6" y1="183.7" x2="183.1" y2="202.4"/><line x1="184.6" y1="183.7" x2="201.7" y2="202.0"/><line x1="198.6" y1="188.6" x2="215.5" y2="187.8"/><line x1="198.6" y1="188.6" x2="201.7" y2="202.0"/><line x1="215.5" y1="187.8" x2="228.4" y2="185.9"/><line x1="215.5" y1="187.8" x2="217.3" y2="202.3"/><line x1="215.5" y1="187.8" x2="229.1" y2="200.5"/><line x1="228.4" y1="185.9" x2="229.1" y2="200.5"/><line x1="7.5" y1="202.6" x2="19.1" y2="200.9"/><line x1="7.5" y1="202.6" x2="6.6" y2="218.2"/><line x1="19.1" y1="200.9" x2="37.9" y2="203.5"/><line x1="19.1" y1="200.9" x2="21.9" y2="215.9"/><line x1="19.1" y1="200.9" x2="37.9" y2="218.1"/><line x1="37.9" y1="203.5" x2="48.6" y2="201.5"/><line x1="37.9" y1="203.5" x2="37.9" y2="218.1"/><line x1="48.6" y1="201.5" x2="68.3" y2="201.7"/><line x1="48.6" y1="201.5" x2="49.5" y2="214.1"/><line x1="48.6" y1="201.5" x2="63.0" y2="218.2"/><line x1="68.3" y1="201.7" x2="82.7" y2="199.8"/><line x1="68.3" y1="201.7" x2="63.0" y2="218.2"/><line x1="82.7" y1="199.8" x2="96.0" y2="198.1"/><line x1="82.7" y1="199.8" x2="79.3" y2="216.5"/><line x1="82.7" y1="199.8" x2="96.2" y2="216.9"/><line x1="96.0" y1="198.1" x2="112.8" y2="201.4"/><line x1="96.0" y1="198.1" x2="96.2" y2="216.9"/><line x1="112.8" y1="201.4" x2="124.1" y2="203.6"/><line x1="112.8" y1="201.4" x2="113.6" y2="216.9"/><line x1="112.8" y1="201.4" x2="124.0" y2="215.6"/><line x1="124.1" y1="203.6" x2="139.3" y2="198.2"/><line x1="124.1" y1="203.6" x2="124.0" y2="215.6"/><line x1="139.3" y1="198.2" x2="157.3" y2="198.5"/><line x1="139.3" y1="198.2" x2="139.1" y2="215.3"/><line x1="139.3" y1="198.2" x2="157.4" y2="216.9"/><line x1="157.3" y1="198.5" x2="172.0" y2="198.8"/><line x1="157.3" y1="198.5" x2="157.4" y2="216.9"/><line x1="172.0" y1="198.8" x2="183.1" y2="202.4"/><line x1="172.0" y1="198.8" x2="171.8" y2="218.2"/><line x1="172.0" y1="198.8" x2="189.0" y2="214.5"/><line x1="183.1" y1="202.4" x2="201.7" y2="202.0"/><line x1="183.1" y1="202.4" x2="189.0" y2="214.5"/><line x1="201.7" y1="202.0" x2="217.3" y2="202.3"/><line x1="201.7" y1="202.0" x2="202.2" y2="216.9"/><line x1="201.7" y1="202.0" x2="213.2" y2="219.0"/><line x1="217.3" y1="202.3" x2="229.1" y2="200.5"/><line x1="217.3" y1="202.3" x2="213.2" y2="219.0"/><line x1="229.1" y1="200.5" x2="230.4" y2="217.0"/><line x1="6.6" y1="218.2" x2="21.9" y2="215.9"/><line x1="6.6" y1="218.2" x2="4.4" y2="230.5"/><line x1="6.6" y1="218.2" x2="18.7" y2="233.8"/><line x1="21.9" y1="215.9" x2="37.9" y2="218.1"/><line x1="21.9" y1="215.9" x2="18.7" y2="233.8"/><line x1="37.9" y1="218.1" x2="49.5" y2="214.1"/><line x1="37.9" y1="218.1" x2="33.3" y2="228.4"/><line x1="37.9" y1="218.1" x2="52.4" y2="231.5"/><line x1="49.5" y1="214.1" x2="63.0" y2="218.2"/><line x1="49.5" y1="214.1" x2="52.4" y2="231.5"/><line x1="63.0" y1="218.2" x2="79.3" y2="216.5"/><line x1="63.0" y1="218.2" x2="64.9" y2="233.6"/><line x1="63.0" y1="218.2" x2="82.2" y2="230.7"/><line x1="79.3" y1="216.5" x2="96.2" y2="216.9"/><line x1="79.3" y1="216.5" x2="82.2" y2="230.7"/><line x1="96.2" y1="216.9" x2="113.6" y2="216.9"/><line x1="96.2" y1="216.9" x2="97.3" y2="233.6"/><line x1="96.2" y1="216.9" x2="113.2" y2="230.2"/><line x1="113.6" y1="216.9" x2="124.0" y2="215.6"/><line x1="113.6" y1="216.9" x2="113.2" y2="230.2"/><line x1="124.0" y1="215.6" x2="139.1" y2="215.3"/><line x1="124.0" y1="215.6" x2="127.6" y2="229.3"/><line x1="124.0" y1="215.6" x2="140.3" y2="234.0"/><line x1="139.1" y1="215.3" x2="157.4" y2="216.9"/><line x1="139.1" y1="215.3" x2="140.3" y2="234.0"/><line x1="157.4" y1="216.9" x2="171.8" y2="218.2"/><line x1="157.4" y1="216.9" x2="157.4" y2="230.4"/><line x1="157.4" y1="216.9" x2="171.3" y2="230.6"/><line x1="171.8" y1="218.2" x2="189.0" y2="214.5"/><line x1="171.8" y1="218.2" x2="171.3" y2="230.6"/><line x1="189.0" y1="214.5" x2="202.2" y2="216.9"/><line x1="189.0" y1="214.5" x2="187.2" y2="231.1"/><line x1="189.0" y1="214.5" x2="200.7" y2="230.5"/><line x1="202.2" y1="216.9" x2="213.2" y2="219.0"/><line x1="202.2" y1="216.9" x2="200.7" y2="230.5"/><line x1="213.2" y1="219.0" x2="230.4" y2="217.0"/><line x1="213.2" y1="219.0" x2="218.3" y2="232.9"/><line x1="213.2" y1="219.0" x2="229.5" y2="230.4"/><line x1="230.4" y1="217.0" x2="229.5" y2="230.4"/><line x1="4.4" y1="230.5" x2="18.7" y2="233.8"/><line x1="4.4" y1="230.5" x2="8.4" y2="247.4"/><line x1="18.7" y1="233.8" x2="33.3" y2="228.4"/><line x1="18.7" y1="233.8" x2="21.6" y2="246.8"/><line x1="18.7" y1="233.8" x2="34.2" y2="246.4"/><line x1="33.3" y1="228.4" x2="52.4" y2="231.5"/><line x1="33.3" y1="228.4" x2="34.2" y2="246.4"/><line x1="52.4" y1="231.5" x2="64.9" y2="233.6"/><line x1="52.4" y1="231.5" x2="52.5" y2="245.6"/><line x1="52.4" y1="231.5" x2="65.5" y2="245.6"/><line x1="64.9" y1="233.6" x2="82.2" y2="230.7"/><line x1="64.9" y1="233.6" x2="65.5" y2="245.6"/><line x1="82.2" y1="230.7" x2="97.3" y2="233.6"/><line x1="82.2" y1="230.7" x2="81.6" y2="244.3"/><line x1="82.2" y1="230.7" x2="97.9" y2="243.4"/><line x1="97.3" y1="233.6" x2="113.2" y2="230.2"/><line x1="97.3" y1="233.6" x2="97.9" y2="243.4"/><line x1="113.2" y1="230.2" x2="127.6" y2="229.3"/><line x1="113.2" y1="230.2" x2="112.6" y2="246.1"/><line x1="113.2" y1="230.2" x2="124.5" y2="244.5"/><line x1="127.6" y1="229.3" x2="140.3" y2="234.0"/><line x1="127.6" y1="229.3" x2="124.5" y2="244.5"/><line x1="140.3" y1="234.0" x2="157.4" y2="230.4"/><line x1="140.3" y1="234.0" x2="139.6" y2="244.0"/><line x1="140.3" y1="234.0" x2="159.0" y2="244.7"/><line x1="157.4" y1="230.4" x2="171.3" y2="230.6"/><line x1="157.4" y1="230.4" x2="159.0" y2="244.7"/><line x1="171.3" y1="230.6" x2="187.2" y2="231.1"/><line x1="171.3" y1="230.6" x2="168.5" y2="246.9"/><line x1="171.3" y1="230.6" x2="188.9" y2="244.7"/><line x1="187.2" y1="231.1" x2="200.7" y2="230.5"/><line x1="187.2" y1="231.1" x2="188.9" y2="244.7"/><line x1="200.7" y1="230.5" x2="218.3" y2="232.9"/><line x1="200.7" y1="230.5" x2="199.4" y2="246.5"/><line x1="200.7" y1="230.5" x2="215.0" y2="245.8"/><line x1="218.3" y1="232.9" x2="229.5" y2="230.4"/><line x1="218.3" y1="232.9" x2="215.0" y2="245.8"/><line x1="229.5" y1="230.4" x2="231.4" y2="249.0"/><line x1="8.4" y1="247.4" x2="21.6" y2="246.8"/><line x1="8.4" y1="247.4" x2="5.3" y2="260.2"/><line x1="8.4" y1="247.4" x2="22.2" y2="261.4"/><line x1="21.6" y1="246.8" x2="34.2" y2="246.4"/><line x1="21.6" y1="246.8" x2="22.2" y2="261.4"/><line x1="34.2" y1="246.4" x2="52.5" y2="245.6"/><line x1="34.2" y1="246.4" x2="38.3" y2="260.6"/><line x1="34.2" y1="246.4" x2="51.8" y2="261.1"/><line x1="52.5" y1="245.6" x2="65.5" y2="245.6"/><line x1="52.5" y1="245.6" x2="51.8" y2="261.1"/><line x1="65.5" y1="245.6" x2="81.6" y2="244.3"/><line x1="65.5" y1="245.6" x2="66.6" y2="260.9"/><line x1="65.5" y1="245.6" x2="79.0" y2="258.7"/><line x1="81.6" y1="244.3" x2="97.9" y2="243.4"/><line x1="81.6" y1="244.3" x2="79.0" y2="258.7"/><line x1="97.9" y1="243.4" x2="112.6" y2="246.1"/><line x1="97.9" y1="243.4" x2="95.4" y2="264.0"/><line x1="97.9" y1="243.4" x2="111.1" y2="261.0"/><line x1="112.6" y1="246.1" x2="124.5" y2="244.5"/><line x1="112.6" y1="246.1" x2="111.1" y2="261.0"/><line x1="124.5" y1="244.5" x2="139.6" y2="244.0"/><line x1="124.5" y1="244.5" x2="125.7" y2="262.7"/><line x1="124.5" y1="244.5" x2="140.1" y2="260.3"/><line x1="139.6" y1="244.0" x2="159.0" y2="244.7"/><line x1="139.6" y1="244.0" x2="140.1" y2="260.3"/><line x1="159.0" y1="244.7" x2="168.5" y2="246.9"/><line x1="159.0" y1="244.7" x2="155.0" y2="261.4"/><line x1="159.0" y1="244.7" x2="170.9" y2="261.6"/><line x1="168.5" y1="246.9" x2="188.9" y2="244.7"/><line x1="168.5" y1="246.9" x2="170.9" y2="261.6"/><line x1="188.9" y1="244.7" x2="199.4" y2="246.5"/><line x1="188.9" y1="244.7" x2="188.6" y2="260.1"/><line x1="188.9" y1="244.7" x2="201.7" y2="264.0"/><line x1="199.4" y1="246.5" x2="215.0" y2="245.8"/><line x1="199.4" y1="246.5" x2="201.7" y2="264.0"/><line x1="215.0" y1="245.8" x2="231.4" y2="249.0"/><line x1="215.0" y1="245.8" x2="217.5" y2="263.1"/><line x1="215.0" y1="245.8" x2="232.9" y2="259.2"/><line x1="231.4" y1="249.0" x2="232.9" y2="259.2"/><line x1="5.3" y1="260.2" x2="22.2" y2="261.4"/><line x1="5.3" y1="260.2" x2="6.8" y2="275.1"/><line x1="22.2" y1="261.4" x2="38.3" y2="260.6"/><line x1="22.2" y1="261.4" x2="20.1" y2="273.8"/><line x1="22.2" y1="261.4" x2="37.7" y2="278.5"/><line x1="38.3" y1="260.6" x2="51.8" y2="261.1"/><line x1="38.3" y1="260.6" x2="37.7" y2="278.5"/><line x1="51.8" y1="261.1" x2="66.6" y2="260.9"/><line x1="51.8" y1="261.1" x2="53.2" y2="275.6"/><line x1="51.8" y1="261.1" x2="68.5" y2="277.8"/><line x1="66.6" y1="260.9" x2="79.0" y2="258.7"/><line x1="66.6" y1="260.9" x2="68.5" y2="277.8"/><line x1="79.0" y1="258.7" x2="95.4" y2="264.0"/><line x1="79.0" y1="258.7" x2="81.7" y2="277.8"/><line x1="79.0" y1="258.7" x2="97.7" y2="273.1"/><line x1="95.4" y1="264.0" x2="111.1" y2="261.0"/><line x1="95.4" y1="264.0" x2="97.7" y2="273.1"/><line x1="111.1" y1="261.0" x2="125.7" y2="262.7"/><line x1="111.1" y1="261.0" x2="111.7" y2="276.9"/><line x1="111.1" y1="261.0" x2="125.2" y2="277.9"/><line x1="125.7" y1="262.7" x2="140.1" y2="260.3"/><line x1="125.7" y1="262.7" x2="125.2" y2="277.9"/><line x1="140.1" y1="260.3" x2="155.0" y2="261.4"/><line x1="140.1" y1="260.3" x2="142.4" y2="273.5"/><line x1="140.1" y1="260.3" x2="155.3" y2="273.1"/><line x1="155.0" y1="261.4" x2="170.9" y2="261.6"/><line x1="155.0" y1="261.4" x2="155.3" y2="273.1"/><line x1="170.9" y1="261.6" x2="188.6" y2="260.1"/><line x1="170.9" y1="261.6" x2="170.2" y2="273.7"/><line x1="170.9" y1="261.6" x2="183.0" y2="274.8"/><line x1="188.6" y1="260.1" x2="201.7" y2="264.0"/><line x1="188.6" y1="260.1" x2="183.0" y2="274.8"/><line x1="201.7" y1="264.0" x2="217.5" y2="263.1"/><line x1="201.7" y1="264.0" x2="202.3" y2="274.1"/><line x1="201.7" y1="264.0" x2="218.8" y2="274.1"/><line x1="217.5" y1="263.1" x2="232.9" y2="259.2"/><line x1="217.5" y1="263.1" x2="218.8" y2="274.1"/><line x1="232.9" y1="259.2" x2="233.0" y2="274.6"/><line x1="6.8" y1="275.1" x2="20.1" y2="273.8"/><line x1="6.8" y1="275.1" x2="8.3" y2="291.0"/><line x1="6.8" y1="275.1" x2="23.0" y2="290.7"/><line x1="20.1" y1="273.8" x2="37.7" y2="278.5"/><line x1="20.1" y1="273.8" x2="23.0" y2="290.7"/><line x1="37.7" y1="278.5" x2="53.2" y2="275.6"/><line x1="37.7" y1="278.5" x2="34.7" y2="293.3"/><line x1="37.7" y1="278.5" x2="48.1" y2="288.8"/><line x1="53.2" y1="275.6" x2="68.5" y2="277.8"/><line x1="53.2" y1="275.6" x2="48.1" y2="288.8"/><line x1="68.5" y1="277.8" x2="81.7" y2="277.8"/><line x1="68.5" y1="277.8" x2="63.8" y2="291.4"/><line x1="68.5" y1="277.8" x2="82.6" y2="289.5"/><line x1="81.7" y1="277.8" x2="97.7" y2="273.1"/><line x1="81.7" y1="277.8" x2="82.6" y2="289.5"/><line x1="97.7" y1="273.1" x2="111.7" y2="276.9"/><line x1="97.7" y1="273.1" x2="96.5" y2="293.1"/><line x1="97.7" y1="273.1" x2="108.0" y2="292.6"/><line x1="111.7" y1="276.9" x2="125.2" y2="277.9"/><line x1="111.7" y1="276.9" x2="108.0" y2="292.6"/><line x1="125.2" y1="277.9" x2="142.4" y2="273.5"/><line x1="125.2" y1="277.9" x2="123.8" y2="288.2"/><line x1="125.2" y1="277.9" x2="141.0" y2="290.3"/><line x1="142.4" y1="273.5" x2="155.3" y2="273.1"/><line x1="142.4" y1="273.5" x2="141.0" y2="290.3"/><line x1="155.3" y1="273.1" x2="170.2" y2="273.7"/><line x1="155.3" y1="273.1" x2="155.4" y2="291.8"/><line x1="155.3" y1="273.1" x2="168.1" y2="291.6"/><line x1="170.2" y1="273.7" x2="183.0" y2="274.8"/><line x1="170.2" y1="273.7" x2="168.1" y2="291.6"/><line x1="183.0" y1="274.8" x2="202.3" y2="274.1"/><line x1="183.0" y1="274.8" x2="183.9" y2="293.7"/><line x1="183.0" y1="274.8" x2="200.8" y2="289.3"/><line x1="202.3" y1="274.1" x2="218.8" y2="274.1"/><line x1="202.3" y1="274.1" x2="200.8" y2="289.3"/><line x1="218.8" y1="274.1" x2="233.0" y2="274.6"/><line x1="218.8" y1="274.1" x2="216.1" y2="290.5"/><line x1="218.8" y1="274.1" x2="228.4" y2="292.6"/><line x1="233.0" y1="274.6" x2="228.4" y2="292.6"/><line x1="8.3" y1="291.0" x2="23.0" y2="290.7"/><line x1="23.0" y1="290.7" x2="34.7" y2="293.3"/><line x1="34.7" y1="293.3" x2="48.1" y2="288.8"/><line x1="48.1" y1="288.8" x2="63.8" y2="291.4"/><line x1="63.8" y1="291.4" x2="82.6" y2="289.5"/><line x1="82.6" y1="289.5" x2="96.5" y2="293.1"/><line x1="96.5" y1="293.1" x2="108.0" y2="292.6"/><line x1="108.0" y1="292.6" x2="123.8" y2="288.2"/><line x1="123.8" y1="288.2" x2="141.0" y2="290.3"/><line x1="141.0" y1="290.3" x2="155.4" y2="291.8"/><line x1="155.4" y1="291.8" x2="168.1" y2="291.6"/><line x1="168.1" y1="291.6" x2="183.9" y2="293.7"/><line x1="183.9" y1="293.7" x2="200.8" y2="289.3"/><line x1="200.8" y1="289.3" x2="216.1" y2="290.5"/><line x1="216.1" y1="290.5" x2="228.4" y2="292.6"/></g><g><circle cx="3.9" cy="6.7" r="3.0" fill="#F5C518"/><circle cx="63.3" cy="6.2" r="3.6" fill="#7A5A3A"/><circle cx="123.8" cy="7.9" r="2.8" fill="#1F7BC8"/><circle cx="183.9" cy="6.7" r="3.2" fill="#1F7BC8"/><circle cx="49.2" cy="21.5" r="3.4" fill="#1F7BC8"/><circle cx="113.0" cy="21.8" r="3.2" fill="#1F7BC8"/><circle cx="170.3" cy="22.5" r="3.3" fill="#6AA82E"/><circle cx="230.4" cy="23.6" r="2.9" fill="#E85A2A"/><circle cx="38.3" cy="35.3" r="3.2" fill="#F26522"/><circle cx="94.3" cy="35.5" r="2.8" fill="#6AA82E"/><circle cx="153.7" cy="33.9" r="3.6" fill="#1F7BC8"/><circle cx="214.8" cy="37.5" r="3.2" fill="#1F7BC8"/><circle cx="20.8" cy="53.1" r="3.0" fill="#E85A2A"/><circle cx="83.0" cy="53.8" r="3.7" fill="#6AA82E"/><circle cx="142.2" cy="53.5" r="3.1" fill="#1F7BC8"/><circle cx="202.7" cy="52.4" r="2.5" fill="#F5C518"/><circle cx="3.9" cy="65.7" r="3.7" fill="#7A5A3A"/><circle cx="68.5" cy="65.7" r="2.8" fill="#7A5A3A"/><circle cx="128.5" cy="65.9" r="3.2" fill="#F5C518"/><circle cx="186.0" cy="66.3" r="2.5" fill="#1F7BC8"/><circle cx="51.9" cy="79.2" r="3.4" fill="#1F7BC8"/><circle cx="108.8" cy="80.0" r="3.4" fill="#F5C518"/><circle cx="168.7" cy="82.1" r="3.0" fill="#F26522"/><circle cx="234.0" cy="78.1" r="2.4" fill="#6AA82E"/><circle cx="36.2" cy="98.8" r="3.6" fill="#6AA82E"/><circle cx="95.3" cy="97.9" r="3.6" fill="#6AA82E"/><circle cx="157.1" cy="98.5" r="3.0" fill="#F5C518"/><circle cx="218.3" cy="94.6" r="3.7" fill="#7A5A3A"/><circle cx="19.0" cy="109.3" r="3.6" fill="#F5C518"/><circle cx="80.6" cy="113.5" r="3.7" fill="#F5C518"/><circle cx="138.1" cy="111.2" r="3.0" fill="#7A5A3A"/><circle cx="200.4" cy="112.1" r="3.8" fill="#6AA82E"/><circle cx="5.2" cy="128.1" r="3.0" fill="#1F7BC8"/><circle cx="66.8" cy="127.3" r="3.2" fill="#6AA82E"/><circle cx="123.1" cy="126.0" r="2.7" fill="#6AA82E"/><circle cx="188.4" cy="128.1" r="3.0" fill="#F5C518"/><circle cx="50.2" cy="140.3" r="3.1" fill="#F5C518"/><circle cx="113.9" cy="139.0" r="3.0" fill="#1F7BC8"/><circle cx="170.0" cy="143.3" r="3.2" fill="#6AA82E"/><circle cx="232.5" cy="143.7" r="2.4" fill="#E85A2A"/><circle cx="38.9" cy="158.0" r="3.1" fill="#6AA82E"/><circle cx="95.9" cy="158.4" r="3.3" fill="#F5C518"/><circle cx="154.2" cy="154.2" r="3.7" fill="#F5C518"/><circle cx="216.3" cy="158.3" r="3.5" fill="#E85A2A"/><circle cx="23.8" cy="170.3" r="2.6" fill="#F5C518"/><circle cx="82.5" cy="169.4" r="3.2" fill="#7A5A3A"/><circle cx="140.1" cy="171.7" r="2.8" fill="#F26522"/><circle cx="203.5" cy="172.2" r="3.7" fill="#6AA82E"/><circle cx="5.5" cy="185.0" r="3.0" fill="#1F7BC8"/><circle cx="68.9" cy="188.7" r="3.0" fill="#6AA82E"/><circle cx="123.7" cy="187.5" r="3.1" fill="#F26522"/><circle cx="184.6" cy="183.7" r="2.5" fill="#1F7BC8"/><circle cx="48.6" cy="201.5" r="3.6" fill="#E85A2A"/><circle cx="112.8" cy="201.4" r="3.7" fill="#6AA82E"/><circle cx="172.0" cy="198.8" r="3.2" fill="#F26522"/><circle cx="229.1" cy="200.5" r="2.9" fill="#7A5A3A"/><circle cx="37.9" cy="218.1" r="3.7" fill="#7A5A3A"/><circle cx="96.2" cy="216.9" r="2.6" fill="#F5C518"/><circle cx="157.4" cy="216.9" r="3.2" fill="#F5C518"/><circle cx="213.2" cy="219.0" r="3.2" fill="#7A5A3A"/><circle cx="18.7" cy="233.8" r="2.4" fill="#F26522"/><circle cx="82.2" cy="230.7" r="3.1" fill="#1F7BC8"/><circle cx="140.3" cy="234.0" r="2.8" fill="#1F7BC8"/><circle cx="200.7" cy="230.5" r="3.6" fill="#1F7BC8"/><circle cx="8.4" cy="247.4" r="3.0" fill="#E85A2A"/><circle cx="65.5" cy="245.6" r="3.4" fill="#1F7BC8"/><circle cx="124.5" cy="244.5" r="3.6" fill="#1F7BC8"/><circle cx="188.9" cy="244.7" r="3.5" fill="#E85A2A"/><circle cx="51.8" cy="261.1" r="2.9" fill="#F5C518"/><circle cx="111.1" cy="261.0" r="3.7" fill="#1F7BC8"/><circle cx="170.9" cy="261.6" r="2.6" fill="#7A5A3A"/><circle cx="232.9" cy="259.2" r="3.0" fill="#7A5A3A"/><circle cx="37.7" cy="278.5" r="3.8" fill="#E85A2A"/><circle cx="97.7" cy="273.1" r="3.6" fill="#7A5A3A"/><circle cx="155.3" cy="273.1" r="3.1" fill="#E85A2A"/><circle cx="218.8" cy="274.1" r="3.5" fill="#1F7BC8"/><circle cx="23.0" cy="290.7" r="3.3" fill="#6AA82E"/><circle cx="82.6" cy="289.5" r="3.3" fill="#1F7BC8"/><circle cx="141.0" cy="290.3" r="3.8" fill="#E85A2A"/><circle cx="200.8" cy="289.3" r="2.4" fill="#7A5A3A"/></g></g>
  <rect id="painel" x="28" y="28" width="184" height="244" fill="#3B3428"/>
  <rect x="32" y="32" width="176" height="236" fill="none" stroke="#F58220" stroke-width="0.9" opacity="0.7"/>
  <g id="centro"><g id="emblema">
    <circle cx="120.0" cy="158" r="78" fill="#F58220"/>
    <circle cx="120.0" cy="158" r="74" fill="none" stroke="#F58220" stroke-width="0.8" opacity="0.5"/>
    <circle cx="120.0" cy="158" r="71" fill="#3B3428"/>
    <g id="rede" stroke="#F58220" stroke-width="1.1" stroke-linecap="round"><line x1="162.4" y1="162.7" x2="149.3" y2="185.4"/><line x1="162.4" y1="162.7" x2="176.1" y2="156.1"/><line x1="162.4" y1="162.7" x2="169.7" y2="183.2"/><line x1="149.3" y1="185.4" x2="122.7" y2="197.6"/><line x1="149.3" y1="185.4" x2="154.8" y2="204.7"/><line x1="149.3" y1="185.4" x2="169.7" y2="183.2"/><line x1="122.7" y1="197.6" x2="89.2" y2="186.8"/><line x1="122.7" y1="197.6" x2="123.4" y2="215.0"/><line x1="122.7" y1="197.6" x2="103.6" y2="210.6"/><line x1="89.2" y1="186.8" x2="79.6" y2="158.5"/><line x1="89.2" y1="186.8" x2="75.7" y2="191.3"/><line x1="89.2" y1="186.8" x2="103.6" y2="210.6"/><line x1="79.6" y1="158.5" x2="88.9" y2="128.9"/><line x1="79.6" y1="158.5" x2="65.5" y2="148.4"/><line x1="79.6" y1="158.5" x2="65.4" y2="172.0"/><line x1="88.9" y1="128.9" x2="123.7" y2="118.1"/><line x1="88.9" y1="128.9" x2="78.2" y2="118.8"/><line x1="88.9" y1="128.9" x2="65.5" y2="148.4"/><line x1="123.7" y1="118.1" x2="145.3" y2="126.2"/><line x1="123.7" y1="118.1" x2="122.8" y2="101.9"/><line x1="123.7" y1="118.1" x2="105.7" y2="102.8"/><line x1="145.3" y1="126.2" x2="162.4" y2="162.7"/><line x1="145.3" y1="126.2" x2="148.9" y2="112.5"/><line x1="145.3" y1="126.2" x2="167.3" y2="127.2"/><line x1="176.1" y1="156.1" x2="169.7" y2="183.2"/><line x1="176.1" y1="156.1" x2="190.8" y2="153.3"/><line x1="176.1" y1="156.1" x2="185.3" y2="175.5"/><line x1="169.7" y1="183.2" x2="154.8" y2="204.7"/><line x1="169.7" y1="183.2" x2="178.9" y2="197.7"/><line x1="169.7" y1="183.2" x2="185.3" y2="175.5"/><line x1="154.8" y1="204.7" x2="123.4" y2="215.0"/><line x1="154.8" y1="204.7" x2="155.7" y2="215.3"/><line x1="154.8" y1="204.7" x2="178.9" y2="197.7"/><line x1="123.4" y1="215.0" x2="103.6" y2="210.6"/><line x1="123.4" y1="215.0" x2="124.3" y2="224.1"/><line x1="123.4" y1="215.0" x2="113.9" y2="229.0"/><line x1="103.6" y1="210.6" x2="75.7" y2="191.3"/><line x1="103.6" y1="210.6" x2="92.7" y2="221.8"/><line x1="103.6" y1="210.6" x2="113.9" y2="229.0"/><line x1="75.7" y1="191.3" x2="65.4" y2="172.0"/><line x1="75.7" y1="191.3" x2="73.1" y2="207.2"/><line x1="75.7" y1="191.3" x2="56.3" y2="181.4"/><line x1="65.4" y1="172.0" x2="65.5" y2="148.4"/><line x1="65.4" y1="172.0" x2="56.3" y2="181.4"/><line x1="65.4" y1="172.0" x2="49.3" y2="153.7"/><line x1="65.5" y1="148.4" x2="78.2" y2="118.8"/><line x1="65.5" y1="148.4" x2="53.0" y2="138.5"/><line x1="65.5" y1="148.4" x2="49.3" y2="153.7"/><line x1="78.2" y1="118.8" x2="105.7" y2="102.8"/><line x1="78.2" y1="118.8" x2="61.2" y2="119.2"/><line x1="78.2" y1="118.8" x2="89.7" y2="96.2"/><line x1="105.7" y1="102.8" x2="122.8" y2="101.9"/><line x1="105.7" y1="102.8" x2="115.7" y2="90.6"/><line x1="105.7" y1="102.8" x2="89.7" y2="96.2"/><line x1="122.8" y1="101.9" x2="148.9" y2="112.5"/><line x1="122.8" y1="101.9" x2="115.7" y2="90.6"/><line x1="122.8" y1="101.9" x2="135.7" y2="88.4"/><line x1="148.9" y1="112.5" x2="167.3" y2="127.2"/><line x1="148.9" y1="112.5" x2="148.3" y2="97.2"/><line x1="148.9" y1="112.5" x2="174.9" y2="112.1"/><line x1="167.3" y1="127.2" x2="176.1" y2="156.1"/><line x1="167.3" y1="127.2" x2="182.8" y2="130.5"/><line x1="167.3" y1="127.2" x2="174.9" y2="112.1"/><line x1="190.8" y1="153.3" x2="185.3" y2="175.5"/><line x1="185.3" y1="175.5" x2="178.9" y2="197.7"/><line x1="178.9" y1="197.7" x2="155.7" y2="215.3"/><line x1="155.7" y1="215.3" x2="124.3" y2="224.1"/><line x1="124.3" y1="224.1" x2="113.9" y2="229.0"/><line x1="113.9" y1="229.0" x2="92.7" y2="221.8"/><line x1="92.7" y1="221.8" x2="73.1" y2="207.2"/><line x1="73.1" y1="207.2" x2="56.3" y2="181.4"/><line x1="56.3" y1="181.4" x2="49.3" y2="153.7"/><line x1="49.3" y1="153.7" x2="53.0" y2="138.5"/><line x1="53.0" y1="138.5" x2="61.2" y2="119.2"/><line x1="61.2" y1="119.2" x2="89.7" y2="96.2"/><line x1="89.7" y1="96.2" x2="115.7" y2="90.6"/><line x1="115.7" y1="90.6" x2="135.7" y2="88.4"/><line x1="135.7" y1="88.4" x2="148.3" y2="97.2"/><line x1="148.3" y1="97.2" x2="174.9" y2="112.1"/><line x1="174.9" y1="112.1" x2="182.8" y2="130.5"/><line x1="182.8" y1="130.5" x2="190.8" y2="153.3"/></g><g id="nos"><circle cx="162.4" cy="162.7" r="3.4" fill="#F5C518"/><circle cx="161.4" cy="161.6" r="1.0" fill="#fff" opacity="0.35"/><circle cx="149.3" cy="185.4" r="3.7" fill="#7A5A3A"/><circle cx="148.2" cy="184.3" r="1.1" fill="#fff" opacity="0.35"/><circle cx="122.7" cy="197.6" r="5.2" fill="#1F7BC8"/><circle cx="121.2" cy="196.0" r="1.6" fill="#fff" opacity="0.35"/><circle cx="89.2" cy="186.8" r="4.3" fill="#E85A2A"/><circle cx="87.9" cy="185.5" r="1.3" fill="#fff" opacity="0.35"/><circle cx="79.6" cy="158.5" r="4.9" fill="#F5C518"/><circle cx="78.1" cy="157.1" r="1.5" fill="#fff" opacity="0.35"/><circle cx="88.9" cy="128.9" r="4.0" fill="#F5C518"/><circle cx="87.7" cy="127.7" r="1.2" fill="#fff" opacity="0.35"/><circle cx="123.7" cy="118.1" r="3.7" fill="#1F7BC8"/><circle cx="122.6" cy="117.0" r="1.1" fill="#fff" opacity="0.35"/><circle cx="145.3" cy="126.2" r="4.2" fill="#1F7BC8"/><circle cx="144.0" cy="124.9" r="1.3" fill="#fff" opacity="0.35"/><circle cx="176.1" cy="156.1" r="5.2" fill="#1F7BC8"/><circle cx="174.6" cy="154.6" r="1.6" fill="#fff" opacity="0.35"/><circle cx="169.7" cy="183.2" r="4.8" fill="#E85A2A"/><circle cx="168.2" cy="181.8" r="1.4" fill="#fff" opacity="0.35"/><circle cx="154.8" cy="204.7" r="3.5" fill="#1F7BC8"/><circle cx="153.7" cy="203.7" r="1.1" fill="#fff" opacity="0.35"/><circle cx="123.4" cy="215.0" r="4.5" fill="#1F7BC8"/><circle cx="122.1" cy="213.6" r="1.4" fill="#fff" opacity="0.35"/><circle cx="103.6" cy="210.6" r="4.2" fill="#1F7BC8"/><circle cx="102.3" cy="209.3" r="1.3" fill="#fff" opacity="0.35"/><circle cx="75.7" cy="191.3" r="5.0" fill="#1F7BC8"/><circle cx="74.2" cy="189.8" r="1.5" fill="#fff" opacity="0.35"/><circle cx="65.4" cy="172.0" r="4.2" fill="#1F7BC8"/><circle cx="64.1" cy="170.8" r="1.3" fill="#fff" opacity="0.35"/><circle cx="65.5" cy="148.4" r="5.0" fill="#1F7BC8"/><circle cx="64.1" cy="146.9" r="1.5" fill="#fff" opacity="0.35"/><circle cx="78.2" cy="118.8" r="3.8" fill="#1F7BC8"/><circle cx="77.0" cy="117.7" r="1.1" fill="#fff" opacity="0.35"/><circle cx="105.7" cy="102.8" r="3.8" fill="#F5C518"/><circle cx="104.6" cy="101.6" r="1.1" fill="#fff" opacity="0.35"/><circle cx="122.8" cy="101.9" r="4.8" fill="#6AA82E"/><circle cx="121.4" cy="100.5" r="1.4" fill="#fff" opacity="0.35"/><circle cx="148.9" cy="112.5" r="5.2" fill="#F26522"/><circle cx="147.3" cy="111.0" r="1.6" fill="#fff" opacity="0.35"/><circle cx="167.3" cy="127.2" r="3.7" fill="#F5C518"/><circle cx="166.1" cy="126.1" r="1.1" fill="#fff" opacity="0.35"/><circle cx="190.8" cy="153.3" r="4.7" fill="#6AA82E"/><circle cx="189.4" cy="151.9" r="1.4" fill="#fff" opacity="0.35"/><circle cx="185.3" cy="175.5" r="5.1" fill="#F26522"/><circle cx="183.8" cy="174.0" r="1.5" fill="#fff" opacity="0.35"/><circle cx="178.9" cy="197.7" r="3.3" fill="#F5C518"/><circle cx="178.0" cy="196.7" r="1.0" fill="#fff" opacity="0.35"/><circle cx="155.7" cy="215.3" r="3.4" fill="#F5C518"/><circle cx="154.7" cy="214.3" r="1.0" fill="#fff" opacity="0.35"/><circle cx="124.3" cy="224.1" r="3.9" fill="#F5C518"/><circle cx="123.1" cy="222.9" r="1.2" fill="#fff" opacity="0.35"/><circle cx="113.9" cy="229.0" r="4.2" fill="#1F7BC8"/><circle cx="112.7" cy="227.7" r="1.3" fill="#fff" opacity="0.35"/><circle cx="92.7" cy="221.8" r="3.5" fill="#F26522"/><circle cx="91.7" cy="220.7" r="1.1" fill="#fff" opacity="0.35"/><circle cx="73.1" cy="207.2" r="3.8" fill="#6AA82E"/><circle cx="71.9" cy="206.1" r="1.1" fill="#fff" opacity="0.35"/><circle cx="56.3" cy="181.4" r="5.0" fill="#F5C518"/><circle cx="54.8" cy="179.9" r="1.5" fill="#fff" opacity="0.35"/><circle cx="49.3" cy="153.7" r="4.1" fill="#1F7BC8"/><circle cx="48.0" cy="152.4" r="1.2" fill="#fff" opacity="0.35"/><circle cx="53.0" cy="138.5" r="4.9" fill="#E85A2A"/><circle cx="51.6" cy="137.0" r="1.5" fill="#fff" opacity="0.35"/><circle cx="61.2" cy="119.2" r="4.2" fill="#1F7BC8"/><circle cx="59.9" cy="117.9" r="1.3" fill="#fff" opacity="0.35"/><circle cx="89.7" cy="96.2" r="3.5" fill="#E85A2A"/><circle cx="88.6" cy="95.2" r="1.0" fill="#fff" opacity="0.35"/><circle cx="115.7" cy="90.6" r="4.5" fill="#F5C518"/><circle cx="114.3" cy="89.2" r="1.4" fill="#fff" opacity="0.35"/><circle cx="135.7" cy="88.4" r="3.7" fill="#F5C518"/><circle cx="134.6" cy="87.2" r="1.1" fill="#fff" opacity="0.35"/><circle cx="148.3" cy="97.2" r="4.5" fill="#1F7BC8"/><circle cx="146.9" cy="95.9" r="1.3" fill="#fff" opacity="0.35"/><circle cx="174.9" cy="112.1" r="5.2" fill="#F5C518"/><circle cx="173.3" cy="110.6" r="1.6" fill="#fff" opacity="0.35"/><circle cx="182.8" cy="130.5" r="3.4" fill="#7A5A3A"/><circle cx="181.8" cy="129.5" r="1.0" fill="#fff" opacity="0.35"/></g>
    <circle cx="122.0" cy="161" r="34.32" fill="#000" opacity="0.18"/>
    <circle cx="120.0" cy="158" r="34.32" fill="#F3E6C8"/>
    <g id="sacola" transform="translate(120.0,154) scale(0.7428571428571429)">
    <ellipse cx="0" cy="56" rx="34" ry="4.5" fill="#000" opacity="0.22"/>
    <path d="M-17,-10 C-17,-42 17,-42 17,-10" fill="none" stroke="#1C1A17" stroke-width="7" stroke-linecap="round"/>
    <path d="M-17,-10 C-17,-40 17,-40 17,-10" fill="none" stroke="#fff" stroke-width="1.2" opacity="0.14" stroke-linecap="round"/>
    <path d="M-36,-12 Q0,-18 36,-12 L28,52 Q0,56 -28,52 Z" fill="#1C1A17"/>
    <path d="M-36,-12 Q0,-18 36,-12 L34,-4 Q0,-10 -34,-4 Z" fill="#000" opacity="0.28"/>
    <path d="M-30,-6 L-24,46" stroke="#fff" opacity="0.10" stroke-width="2.5" stroke-linecap="round"/>
    <text y="34" text-anchor="middle" font-family="'Helvetica Neue', Helvetica, Arial, sans-serif" font-weight="800" font-size="30" letter-spacing="-0.5" fill="#F3E6C8">FAI</text>
  </g>
  </g></g>
  <g id="tipografia" font-family="'Helvetica Neue', Helvetica, Arial, sans-serif" fill="#F3E6C8">
    <text x="120.0" y="48" text-anchor="middle" font-size="7.2" letter-spacing="2.2" font-weight="500">SÉRIE FASHION AI · Nº 02</text>
    <text x="120.0" y="70" text-anchor="middle" font-size="19" font-weight="700" letter-spacing="0.5">FASHION AI</text>
    <text x="40" y="258" font-size="7" letter-spacing="1.4" font-weight="500" opacity="0.85">NOTURNO</text>
    <text x="40" y="269" font-family="Georgia, 'Times New Roman', serif" font-style="italic" font-size="7.5" opacity="0.75">Fundo escuro · acento laranja</text>
  </g>
  <g id="denominacao" transform="translate(184,248)">
    <circle r="17" fill="#F58220"/>
    <circle r="14" fill="none" stroke="#3B3428" stroke-width="0.8" opacity="0.6"/>
    <text y="4" text-anchor="middle" font-family="'Helvetica Neue', Helvetica, Arial, sans-serif" font-weight="700" font-size="11" letter-spacing="-0.3" fill="#15151A">2026</text>
  </g></g></svg>